<svg width="16" height="16" viewBox="0 0 16 16" fill="none" xmlns="http://www.w3.org/2000/svg">
<mask id="mask0_11_2333" style="mask-type:alpha" maskUnits="userSpaceOnUse" x="0" y="0" width="24" height="24">
<rect width="24" height="24" fill="#D9D9D9"/>
</mask>
<g mask="url(#mask0_11_2333)">
<path d="M6.99984 10.8666C6.91095 10.8666 6.83317 10.8361 6.7665 10.775C6.69984 10.7139 6.6665 10.6333 6.6665 10.5333V5.46663C6.6665 5.36663 6.69984 5.28608 6.7665 5.22497C6.83317 5.16386 6.91095 5.1333 6.99984 5.1333C7.02206 5.1333 7.09984 5.16663 7.23317 5.2333L9.64984 7.64997C9.70539 7.70552 9.74428 7.76108 9.7665 7.81663C9.78873 7.87219 9.79984 7.9333 9.79984 7.99997C9.79984 8.06663 9.78873 8.12775 9.7665 8.1833C9.74428 8.23886 9.70539 8.29441 9.64984 8.34997L7.23317 10.7666C7.19984 10.8 7.16373 10.825 7.12484 10.8416C7.08595 10.8583 7.04428 10.8666 6.99984 10.8666Z" fill="#0F1014"/>
</g>
</svg>
