<svg width="16" height="16" viewBox="0 0 16 16" fill="none" xmlns="http://www.w3.org/2000/svg">
<mask id="mask0_0_196" style="mask-type:alpha" maskUnits="userSpaceOnUse" x="0" y="0" width="24" height="24">
<rect width="24" height="24" fill="#D9D9D9"/>
</mask>
<g mask="url(#mask0_0_196)">
<path d="M7.00008 10.8667C6.91119 10.8667 6.83341 10.8361 6.76675 10.775C6.70008 10.7139 6.66675 10.6334 6.66675 10.5334V5.4667C6.66675 5.3667 6.70008 5.28614 6.76675 5.22503C6.83341 5.16392 6.91119 5.13336 7.00008 5.13336C7.0223 5.13336 7.10008 5.1667 7.23341 5.23336L9.65008 7.65003C9.70564 7.70558 9.74453 7.76114 9.76675 7.8167C9.78897 7.87225 9.80008 7.93336 9.80008 8.00003C9.80008 8.0667 9.78897 8.12781 9.76675 8.18336C9.74453 8.23892 9.70564 8.29447 9.65008 8.35003L7.23341 10.7667C7.20008 10.8 7.16397 10.825 7.12508 10.8417C7.08619 10.8584 7.04453 10.8667 7.00008 10.8667Z" fill="#0F1014"/>
</g>
</svg>
