<svg width="16" height="16" viewBox="0 0 16 16" fill="none" xmlns="http://www.w3.org/2000/svg">
<mask id="mask0_0_65" style="mask-type:alpha" maskUnits="userSpaceOnUse" x="0" y="0" width="24" height="24">
<rect width="24" height="24" fill="#D9D9D9"/>
</mask>
<g mask="url(#mask0_0_65)">
<path d="M2.66675 12.6666V6.66665C2.66675 6.45554 2.71397 6.25554 2.80841 6.06665C2.90286 5.87776 3.03341 5.7222 3.20008 5.59998L7.20008 2.59998C7.43341 2.4222 7.70008 2.33331 8.00008 2.33331C8.30008 2.33331 8.56675 2.4222 8.80008 2.59998L12.8001 5.59998C12.9667 5.7222 13.0973 5.87776 13.1917 6.06665C13.2862 6.25554 13.3334 6.45554 13.3334 6.66665V12.6666C13.3334 13.0333 13.2029 13.3472 12.9417 13.6083C12.6806 13.8694 12.3667 14 12.0001 14H10.0001C9.81119 14 9.65286 13.9361 9.52508 13.8083C9.3973 13.6805 9.33341 13.5222 9.33341 13.3333V9.99998C9.33341 9.81109 9.26953 9.65276 9.14175 9.52498C9.01397 9.3972 8.85564 9.33331 8.66675 9.33331H7.33341C7.14453 9.33331 6.98619 9.3972 6.85841 9.52498C6.73064 9.65276 6.66675 9.81109 6.66675 9.99998V13.3333C6.66675 13.5222 6.60286 13.6805 6.47508 13.8083C6.3473 13.9361 6.18897 14 6.00008 14H4.00008C3.63341 14 3.31953 13.8694 3.05841 13.6083C2.7973 13.3472 2.66675 13.0333 2.66675 12.6666Z" fill="#0F1014"/>
</g>
</svg>
