<svg width="211" height="48" viewBox="0 0 211 48" fill="none" xmlns="http://www.w3.org/2000/svg">
<g clip-path="url(#clip0_0_140)">
<path d="M31.9967 40.9432C32.0475 41.9244 31.7348 42.8898 31.1184 43.6548C30.678 44.2766 30.0323 44.7231 29.2951 44.9158C28.8689 45.0205 28.4237 45.0205 27.9976 44.9158C27.9606 44.9012 27.9198 44.8994 27.8818 44.9109C27.8437 44.9224 27.8107 44.9464 27.7879 44.979C26.7524 46.286 25.3076 47.207 23.6856 47.5941C22.9341 47.7853 22.1669 47.9089 21.3933 47.9634C20.8279 47.9984 20.2608 47.9917 19.6965 47.9434C18.7934 47.9254 17.9231 47.6017 17.2277 47.0252C17.1987 46.9979 17.1615 46.9809 17.1219 46.9767C17.0822 46.9725 17.0423 46.9813 17.0082 47.0019C16.3444 47.2693 15.6448 47.4375 14.9321 47.5009C13.748 47.648 12.5525 47.3387 11.5883 46.6359C11.5118 46.5793 11.4819 46.5893 11.4186 46.6359C10.8272 47.1945 10.1037 47.594 9.31592 47.7971C8.72874 47.9294 8.12286 47.9576 7.52594 47.8802C6.95354 47.8226 6.3929 47.6802 5.86239 47.4577C5.02761 47.1213 4.32229 46.5267 3.8495 45.7609C3.42832 45.0448 3.18528 44.2381 3.14083 43.4086C3.08106 42.9219 3.05439 42.4317 3.06098 41.9414C3.07658 40.5247 3.43868 39.1335 4.11567 37.889C4.1376 37.8547 4.14925 37.8149 4.14925 37.7742C4.14925 37.7335 4.1376 37.6937 4.11567 37.6594C3.80354 37.041 3.59023 36.3775 3.48352 35.6931C3.38423 35.0408 3.37639 34.3779 3.46023 33.7234C3.6166 32.5357 4.21881 31.5941 4.98071 30.729C5.35278 30.3252 5.75304 29.9483 6.17847 29.6012C6.27495 29.518 6.25166 29.498 6.17847 29.4448C5.62574 29.0513 5.11211 28.6057 4.64467 28.114C3.90882 27.3472 3.26765 26.4949 2.73492 25.5754C2.12019 24.5067 1.62906 23.3715 1.271 22.1917C1.02861 21.4109 0.848381 20.6121 0.732011 19.8029C0.652161 19.1996 0.588946 18.5951 0.542367 17.9896C0.489739 17.3021 0.48196 16.612 0.519077 15.9235C0.565285 15.0045 0.69333 14.0915 0.901693 13.1953C1.16295 12.0724 1.5514 10.9829 2.05952 9.94801C2.13937 9.78166 2.23253 9.6153 2.32902 9.45893C2.34178 9.44105 2.35088 9.42082 2.35578 9.3994C2.36069 9.37799 2.3613 9.35581 2.35759 9.33416C2.35388 9.31251 2.34591 9.2918 2.33416 9.27325C2.3224 9.25469 2.30708 9.23864 2.28909 9.22603C2.04954 8.98648 1.76008 8.80682 1.50722 8.58723C0.803672 7.96641 0.333993 7.12334 0.176386 6.19838C0.0315489 5.52086 -0.0276926 4.82785 5.00097e-05 4.13558C0.0162674 3.17928 0.34588 2.25473 0.938291 1.50385C1.42833 0.930382 2.07631 0.513824 2.80146 0.306092C3.34417 0.151566 3.90187 0.055642 4.46501 0.0199613C5.14633 -0.0414502 5.83266 0.0541576 6.47125 0.299437C7.16197 0.538826 7.7764 0.958013 8.25125 1.51383C8.48002 1.83205 8.68678 2.16554 8.87009 2.51196C8.9699 2.67166 9.09633 2.81139 9.18283 2.97442C9.26934 3.13745 9.33921 3.10751 9.46231 3.05095C10.4281 2.60548 11.4386 2.26419 12.4767 2.03285C13.0073 1.9139 13.5437 1.82173 14.0836 1.75671C14.4413 1.71201 14.8012 1.68868 15.1616 1.68684C16.3987 1.69694 17.6291 1.8692 18.8214 2.19921C19.8693 2.49063 20.8857 2.88515 21.8557 3.377C22.1618 3.52672 22.4513 3.70971 22.7441 3.88937C22.8372 3.94261 22.8772 3.94261 22.947 3.83614C23.1256 3.54273 23.3234 3.26153 23.5392 2.99438C23.7814 2.73063 24.0632 2.50614 24.3744 2.32897C24.945 1.95037 25.6018 1.72153 26.2841 1.66355C27.6133 1.53893 28.9394 1.93092 29.9872 2.75816C30.8987 3.4691 31.5207 4.48722 31.7372 5.62279C31.8575 6.19109 31.899 6.77327 31.8603 7.35288C31.8527 8.13854 31.6219 8.90585 31.1949 9.5654C30.9117 9.92133 30.575 10.2311 30.1968 10.4837C29.914 10.69 29.6312 10.8962 29.335 11.0826C29.2119 11.1624 29.2352 11.2223 29.2818 11.3188C29.4615 11.6515 29.6445 12.0075 29.8075 12.3602C30.2966 13.4226 30.6573 14.5395 30.8821 15.6873C31.0509 16.6311 31.1089 17.5913 31.0552 18.5486C31.0085 19.152 30.9184 19.7513 30.7857 20.3419C30.6449 21.1396 30.4379 21.9241 30.1668 22.6875C29.6572 24.0819 28.9563 25.3987 28.0841 26.6001C27.5212 27.3822 26.8923 28.1147 26.2043 28.7894C25.978 29.0089 25.7318 29.2086 25.4923 29.4115C25.4428 29.4461 25.4037 29.4934 25.379 29.5485C25.3544 29.6036 25.3453 29.6644 25.3525 29.7243C25.3867 30.2519 25.3644 30.7817 25.286 31.3046C25.2623 31.4521 25.281 31.6032 25.3399 31.7405C25.3988 31.8777 25.4955 31.9954 25.6187 32.0798C26.2803 32.6843 26.8537 33.3787 27.3222 34.1427C27.8185 34.9401 28.2025 35.8022 28.4634 36.7045C28.5099 36.8709 28.5731 36.8409 28.673 36.8176C28.9653 36.7241 29.2748 36.6965 29.5791 36.7368C29.8834 36.7771 30.175 36.8842 30.433 37.0505C30.7817 37.2982 31.0649 37.6271 31.2581 38.0087C31.5988 38.633 31.8401 39.3065 31.9734 40.005C32.0281 40.3148 32.036 40.6311 31.9967 40.9432Z" fill="black"/>
<path d="M30.1702 17.6336C30.1813 18.4334 30.0987 19.2318 29.924 20.0124C29.8054 20.7456 29.6308 21.4686 29.4017 22.1751C28.5492 24.5644 27.1274 26.7102 25.2594 28.4267C24.0099 29.606 22.4649 30.4256 20.7878 30.7989C19.9949 30.9792 19.1931 31.118 18.3857 31.2148C17.8267 31.2713 17.2644 31.3179 16.7021 31.3545C16.2262 31.3911 15.7486 31.4011 15.2715 31.3845C14.4764 31.3564 13.6834 31.2854 12.8959 31.1715C11.9773 31.0353 11.0722 30.8193 10.191 30.5261C8.93347 30.1182 7.75032 29.5092 6.68759 28.7228C5.67269 27.9631 4.78638 27.0453 4.06251 26.0045C3.18838 24.7297 2.51512 23.3282 2.06625 21.849C1.81922 21.0291 1.64116 20.19 1.53392 19.3404C1.3795 18.2642 1.32271 17.1762 1.36424 16.0898C1.4005 15.23 1.51183 14.375 1.69695 13.5346C1.97911 12.2741 2.44074 11.0607 3.06771 9.93135C3.44337 9.26027 3.87404 8.62149 4.35529 8.0216C4.79883 7.48438 5.27909 6.97855 5.7926 6.50777C6.48483 5.85678 7.24436 5.28128 8.05835 4.79099C9.17029 4.10816 10.3628 3.56613 11.6084 3.17735C12.4505 2.90326 13.3193 2.71924 14.2002 2.62838C14.5803 2.57365 14.964 2.54696 15.348 2.54853C16.2221 2.58432 17.0915 2.69564 17.9465 2.88124C19.2762 3.18319 20.5573 3.6692 21.7527 4.3252C22.5945 4.77736 23.3864 5.31713 24.1149 5.93551C24.4177 6.19835 24.7204 6.45786 25.0066 6.73734C25.3931 7.16469 25.7509 7.61704 26.0779 8.09147C26.5969 8.75689 27.0993 9.45225 27.5651 10.1642C28.5108 11.5694 29.244 13.1065 29.741 14.7257C29.9421 15.3895 30.077 16.0715 30.1436 16.7619C30.1736 17.1046 30.1536 17.4373 30.1702 17.6336Z" fill="white"/>
<path d="M16.742 32.3693C16.17 33.3052 15.6982 34.2989 15.3346 35.3338C15.238 35.6922 15.1657 36.0568 15.1184 36.4251C15.0886 36.6579 15.1077 36.8944 15.1744 37.1194C15.2411 37.3445 15.354 37.5532 15.5058 37.7322C15.6576 37.9113 15.845 38.0567 16.0562 38.1593C16.2673 38.2619 16.4975 38.3194 16.732 38.3282C16.9387 38.3262 17.1409 38.2678 17.3168 38.1593C17.4927 38.0509 17.6356 37.8964 17.7302 37.7126C17.7601 37.6627 17.7534 37.5862 17.8366 37.5729C18.6218 38.1718 19.6299 38.3814 20.2421 37.1071C20.3835 37.4262 20.5977 37.7076 20.8676 37.9289C21.0753 38.0774 21.3243 38.1572 21.5796 38.1572C21.8349 38.1572 22.0839 38.0774 22.2916 37.9289C23.014 37.4386 23.6047 36.7782 24.0117 36.0058C24.545 35.073 24.9025 34.0501 25.0664 32.9882C25.082 32.9429 25.1044 32.9002 25.1329 32.8617C25.6673 33.3711 26.1326 33.9482 26.517 34.5785C27.0905 35.4698 27.4954 36.4588 27.7114 37.4964C27.7243 37.5617 27.7514 37.6233 27.7908 37.6769C27.8302 37.7306 27.8809 37.7748 27.9393 37.8066C27.9978 37.8384 28.0626 37.8569 28.129 37.8607C28.1954 37.8646 28.2619 37.8538 28.3236 37.8291C28.5907 37.7187 28.8699 37.6405 29.1554 37.5962C29.8208 37.533 30.1768 37.9289 30.4596 38.4446C30.9692 39.3345 31.2009 40.3565 31.125 41.3791C31.0717 41.9688 30.8487 42.5304 30.4829 42.9961C30.1347 43.5484 29.5842 43.9425 28.9491 44.094C28.6969 44.1289 28.4406 44.1221 28.1905 44.074C28.1273 44.074 28.104 44.0308 28.124 43.9809C28.189 43.6942 28.1822 43.3959 28.104 43.1125C28.0249 42.3946 27.8767 41.686 27.6615 40.9965C27.5095 40.3571 27.2471 39.7491 26.8863 39.1999C26.7489 38.9842 26.559 38.807 26.3344 38.6848C26.1097 38.5626 25.8578 38.4994 25.6021 38.5012C25.3241 38.4907 25.0464 38.5267 24.7803 38.6076C24.6206 38.6642 24.5707 38.6076 24.5241 38.4912C24.3573 38.0555 24.0553 37.6847 23.6624 37.4332C23.5426 37.36 23.4993 37.3899 23.4261 37.4664C23.0848 37.8376 22.6732 38.1373 22.2151 38.3481C21.5562 38.6714 20.8003 38.7367 20.0957 38.5311C20.0258 38.5111 19.9626 38.4879 19.9027 38.5311C19.3405 38.9104 18.7715 38.8239 18.1993 38.5644C18.1621 38.5446 18.1198 38.5369 18.0781 38.5422C18.0363 38.5476 17.9973 38.5658 17.9664 38.5943C17.5538 38.927 17.078 38.8838 16.6089 38.7607C16.4492 38.7174 16.376 38.7607 16.3062 38.8838C15.9243 39.6273 15.6776 40.4328 15.5775 41.2626C15.5057 41.7248 15.4767 42.1926 15.491 42.66C15.5135 43.6695 15.7281 44.6654 16.1232 45.5945C16.2063 45.7775 16.3195 45.9439 16.4193 46.1169C16.4725 46.21 16.5124 46.2633 16.3527 46.3165C15.6837 46.5609 14.9755 46.6804 14.2633 46.6692C13.5138 46.644 12.7873 46.4038 12.1706 45.9771C12.0741 45.9106 12.0907 45.8574 12.1506 45.7675C12.6214 45.0314 12.9216 44.1993 13.029 43.3321C13.1258 42.7294 13.1681 42.1192 13.1554 41.5089C13.1432 40.2694 12.8605 39.0477 12.3269 37.9289C12.1485 37.5416 11.9105 37.1845 11.6216 36.8709C11.5085 36.7611 11.5118 36.6646 11.5983 36.5382C12.0137 35.8481 12.4797 35.1897 12.9924 34.5685C13.5176 33.9391 14.1013 33.3609 14.7358 32.8418C14.8953 32.7016 15.0817 32.5954 15.2836 32.5296C15.4855 32.4638 15.6987 32.4398 15.9102 32.4592C16.1903 32.4689 16.4704 32.4387 16.742 32.3693Z" fill="white"/>
<path d="M9.40911 38.2849C9.1391 38.2805 8.87334 38.2169 8.63057 38.0986C8.55072 38.0653 8.5108 38.0553 8.44758 38.1352C8.23164 38.4057 7.92175 38.585 7.57958 38.6374C7.23741 38.6898 6.88806 38.6115 6.60104 38.418C6.46796 38.3248 6.37147 38.2782 6.22176 38.388C6.00092 38.5651 5.7263 38.6617 5.44321 38.6617C5.16013 38.6617 4.88551 38.5651 4.66467 38.388C4.38187 38.1984 4.30202 38.0354 4.3852 37.8058C4.39497 37.7571 4.41551 37.7112 4.44533 37.6715C4.47515 37.6318 4.51348 37.5992 4.55751 37.5763C4.60154 37.5533 4.65015 37.5405 4.69979 37.5387C4.74942 37.537 4.79881 37.5464 4.84434 37.5662C5.03666 37.6448 5.24869 37.6613 5.45086 37.6136C5.65304 37.5659 5.8353 37.4563 5.97222 37.3001C6.10863 37.1637 6.21177 37.2069 6.32157 37.3433C6.59772 37.676 7.50269 38.0087 7.96183 37.676C8.11927 37.5614 8.25361 37.4181 8.35775 37.2535C8.37539 37.2185 8.40062 37.188 8.43158 37.164C8.46255 37.1401 8.49848 37.1233 8.53675 37.115C8.57501 37.1067 8.61465 37.1071 8.65275 37.1161C8.69086 37.1251 8.72648 37.1425 8.757 37.167C9.16623 37.4132 10.0878 37.4731 10.4205 36.9341C10.4904 36.8243 10.5536 36.8642 10.6235 36.9341C10.7119 37.0702 10.7475 37.234 10.7236 37.3945C10.6997 37.555 10.618 37.7013 10.4937 37.8058C10.2065 38.0979 9.81851 38.2693 9.40911 38.2849Z" fill="white"/>
<path d="M5.71258 5.26682C5.72216 5.31315 5.71628 5.36134 5.69585 5.404C5.67542 5.44667 5.64156 5.48146 5.59946 5.50304C5.47519 5.58691 5.36321 5.6877 5.26675 5.80248C5.25455 5.82392 5.23688 5.84175 5.21555 5.85415C5.19422 5.86655 5.16999 5.87309 5.14531 5.87309C5.12064 5.87309 5.09641 5.86655 5.07508 5.85415C5.05375 5.84175 5.03608 5.82392 5.02387 5.80248C4.93913 5.71619 4.88033 5.60782 4.85419 5.48973C4.76103 5.02394 4.39838 4.7611 4.08231 4.46832C3.95347 4.35629 3.84142 4.22631 3.7496 4.08237C3.72165 4.04168 3.70605 3.99377 3.70469 3.94442C3.70332 3.89507 3.71625 3.84637 3.74191 3.80419C3.76757 3.76201 3.80487 3.72815 3.84932 3.70667C3.89377 3.68519 3.94348 3.67701 3.99248 3.68312C4.25924 3.72077 4.51155 3.82743 4.72444 3.99254C4.94677 4.1016 5.14531 4.25359 5.30863 4.43974C5.47194 4.6259 5.59679 4.84254 5.67599 5.07717C5.69611 5.1386 5.70841 5.20232 5.71258 5.26682Z" fill="white"/>
<path d="M25.9314 6.14517C25.8881 5.40655 26.507 4.95407 27.0925 4.78439C27.1633 4.75509 27.2424 4.7528 27.3148 4.77794C27.3871 4.80309 27.4477 4.85392 27.4851 4.9208C27.5244 4.99317 27.5418 5.07537 27.5353 5.15745C27.5288 5.23953 27.4987 5.31797 27.4485 5.38326C27.2921 5.60285 27.0958 5.78917 26.9461 6.01541C26.833 6.18177 26.8729 6.38805 26.7498 6.55108C26.6988 6.6337 26.6246 6.6995 26.5364 6.74031C26.4483 6.78112 26.3501 6.79515 26.2541 6.78064C26.111 6.76068 25.9214 6.47788 25.9214 6.30487L25.9314 6.14517Z" fill="white"/>
<path d="M5.02395 24.1347C5.02926 23.2697 5.21511 22.4152 5.5696 21.6261C5.8484 20.9127 6.28124 20.2697 6.83722 19.743C7.40568 19.1541 8.14895 18.7644 8.95658 18.6317C9.35739 18.5652 9.76805 18.5906 10.1576 18.7058C10.5472 18.8211 10.9056 19.0233 11.2057 19.2971C11.5348 19.6167 11.7409 20.0419 11.7879 20.4982C11.9044 21.3067 11.6482 22.0287 11.3521 22.7506C10.9894 23.639 10.517 24.4774 10.1044 25.3458C9.89495 25.806 9.57076 26.2046 9.16294 26.5035C8.75512 26.8023 8.27736 26.9914 7.77546 27.0526C6.63094 27.2289 5.83244 26.5202 5.38328 25.6918C5.1184 25.2173 4.99379 24.6773 5.02395 24.1347Z" fill="black"/>
<path d="M23.7888 24.1148C23.8259 24.7457 23.6654 25.3725 23.3297 25.9081C23.1179 26.2304 22.8436 26.5069 22.523 26.7212C22.2024 26.9355 21.842 27.0833 21.4632 27.1557C21.093 27.2426 20.7087 27.2502 20.3354 27.1779C19.9621 27.1057 19.6083 26.9552 19.2973 26.7365C18.8262 26.421 18.4811 25.9499 18.3224 25.4057C18.176 24.9133 17.9897 24.4342 17.8367 23.9484C17.5661 23.2568 17.436 22.5182 17.454 21.7758C17.5206 20.8908 17.7102 20.0424 18.3823 19.3936C18.7653 19.0457 19.2511 18.832 19.7664 18.7848C20.4321 18.6915 21.108 18.8622 21.6495 19.2605C22.3916 19.7902 22.9619 20.5259 23.2898 21.3766C23.5429 22.0531 23.6986 22.7622 23.7522 23.4826C23.7722 23.6955 23.7822 23.9018 23.7888 24.1148Z" fill="black"/>
<path d="M14.4163 27.6981C13.9162 27.7368 13.4194 27.5886 13.0222 27.2822C12.8715 27.1831 12.7441 27.0524 12.6487 26.8993C12.5534 26.7461 12.4924 26.5741 12.4699 26.3951C12.4475 26.2161 12.4641 26.0344 12.5187 25.8624C12.5732 25.6904 12.6644 25.5324 12.786 25.3991C13.0053 25.1488 13.3103 24.9897 13.6411 24.9532C14.2851 24.8241 14.9517 24.8666 15.5741 25.0763C15.7737 25.1558 15.9473 25.289 16.0759 25.461C16.2045 25.633 16.283 25.8373 16.3028 26.0512C16.3725 26.4265 16.3002 26.8143 16.0998 27.1391C15.8913 27.413 15.5849 27.5955 15.2447 27.6482C14.9712 27.6946 14.6934 27.7113 14.4163 27.6981Z" fill="black"/>
<path d="M15.4111 29.1121C15.1034 29.133 14.7953 29.0793 14.5128 28.9557C14.0973 28.8262 13.6527 28.8227 13.2352 28.9457C12.975 29.0014 12.7051 28.9929 12.4489 28.921C12.1927 28.8492 11.9579 28.716 11.7646 28.5332C11.1724 28.0707 10.8363 27.4086 10.4338 26.7997C10.3639 26.6899 10.304 26.5702 10.4105 26.4471C10.4604 26.3815 10.5265 26.3301 10.6024 26.298C10.6783 26.2659 10.7612 26.2542 10.843 26.2641C10.9176 26.2794 10.9839 26.3219 11.0288 26.3835C11.0737 26.445 11.0941 26.521 11.0859 26.5968C11.0326 27.2622 11.4419 27.7347 11.8677 28.1738C12.0719 28.407 12.3392 28.576 12.6374 28.6605C12.9356 28.7449 13.2518 28.7411 13.5479 28.6496C13.9707 28.5519 14.4133 28.5868 14.8155 28.7494C15.1419 28.8693 15.4966 28.8886 15.834 28.805C16.1714 28.7214 16.4761 28.5386 16.7087 28.2803C17.0359 27.9408 17.2437 27.504 17.3009 27.036C17.2961 26.8711 17.2817 26.7067 17.2576 26.5435C17.2578 26.4868 17.2774 26.4318 17.3131 26.3876C17.3488 26.3434 17.3985 26.3128 17.4539 26.3007C17.5182 26.2784 17.5877 26.2764 17.6531 26.2948C17.7185 26.3132 17.7768 26.3513 17.8199 26.4038C17.9064 26.4837 17.9796 26.6068 17.9131 26.6933C17.6569 27.026 17.617 27.4385 17.424 27.7879C17.2669 28.1161 17.0374 28.4043 16.7527 28.6308C16.468 28.8573 16.1355 29.0162 15.7804 29.0954C15.658 29.1112 15.5345 29.1168 15.4111 29.1121Z" fill="black"/>
<path d="M8.31768 25.0497C7.68221 24.9665 7.11993 24.7702 6.93028 24.0748C6.91386 24.0162 6.91386 23.9541 6.93029 23.8955C6.94672 23.8368 6.97894 23.7838 7.02344 23.7421C7.12991 23.6323 7.23305 23.7421 7.29959 23.7821C7.69861 24.0653 8.1516 24.2635 8.63043 24.3643C8.76684 24.4076 8.90325 24.4641 8.91656 24.6072C8.92987 24.7502 8.7868 24.89 8.64707 24.9632C8.54079 25.0041 8.43033 25.0331 8.31768 25.0497Z" fill="white"/>
<path d="M8.77035 21.8757C8.77965 21.654 8.86255 21.4417 9.00595 21.2724C9.14935 21.1031 9.34507 20.9864 9.56219 20.9408C9.6628 20.9359 9.76193 20.9665 9.84222 21.0273C9.92251 21.0882 9.97885 21.1753 10.0014 21.2735C10.0595 21.4578 10.051 21.6568 9.97744 21.8355C9.90386 22.0143 9.76985 22.1616 9.59879 22.2516C9.58065 22.2629 9.56175 22.2729 9.54223 22.2816C9.39251 22.3814 9.25277 22.5045 9.05315 22.3947C8.96397 22.3413 8.89072 22.265 8.84099 22.1737C8.79126 22.0825 8.76687 21.9795 8.77035 21.8757Z" fill="white"/>
<path d="M20.4117 25.6852C20.2364 25.6898 20.0645 25.6362 19.923 25.5326C19.7815 25.429 19.6784 25.2814 19.6298 25.1129C19.5832 24.9399 19.6997 24.8734 19.8361 24.8168C20.0233 24.7483 20.2194 24.7068 20.4183 24.6937C20.542 24.6707 20.6584 24.6186 20.758 24.5416C20.8575 24.4647 20.9372 24.3651 20.9906 24.2512C21.0904 24.1015 21.1769 23.9451 21.2701 23.7954C21.2871 23.7569 21.3138 23.7234 21.3476 23.6983C21.3815 23.6733 21.4213 23.6574 21.4631 23.6523C21.5496 23.6523 21.5595 23.7621 21.5961 23.8353C21.6926 24.0217 21.5961 24.1947 21.5729 24.3643C21.5357 24.659 21.4419 24.9437 21.2967 25.2028C21.2053 25.3545 21.0751 25.4791 20.9196 25.5639C20.764 25.6487 20.5888 25.6905 20.4117 25.6852Z" fill="white"/>
<path d="M20.4085 22.2483C20.4145 22.3269 20.4042 22.4058 20.3782 22.4803C20.3523 22.5547 20.3112 22.623 20.2577 22.6808C20.2041 22.7386 20.1392 22.7847 20.0669 22.8163C19.9947 22.8478 19.9167 22.8641 19.8379 22.8641C19.7591 22.8641 19.6811 22.8478 19.6089 22.8163C19.5366 22.7847 19.4717 22.7386 19.4181 22.6808C19.3645 22.623 19.3235 22.5547 19.2975 22.4803C19.2716 22.4058 19.2613 22.3269 19.2673 22.2483C19.275 22.0972 19.3338 21.9533 19.4342 21.8402C19.5346 21.7271 19.6705 21.6516 19.8196 21.6261C19.9793 21.633 20.1301 21.7018 20.24 21.8179C20.3499 21.934 20.4104 22.0884 20.4085 22.2483Z" fill="white"/>
<path d="M14.8521 26.1144C14.5276 26.0229 14.1909 25.9825 13.854 25.9946C13.8041 25.9946 13.691 25.9946 13.6743 25.8981C13.6577 25.8016 13.7508 25.7816 13.8141 25.7484C13.9984 25.6711 14.1989 25.6404 14.398 25.659C14.597 25.6775 14.7884 25.7448 14.9553 25.8548C14.9883 25.8742 15.0138 25.904 15.0277 25.9397C15.0416 25.9753 15.043 26.0146 15.0318 26.0511C14.9885 26.1343 14.9087 26.0711 14.8521 26.1144Z" fill="white"/>
<path d="M117.809 35.7962C117.748 36.0215 117.729 36.2561 117.753 36.4883C117.709 37.0905 117.666 37.6927 117.64 38.2949C117.661 38.484 117.641 38.6755 117.582 38.8564C117.523 39.0373 117.425 39.2033 117.296 39.3434C117.167 39.4835 117.01 39.5943 116.835 39.6683C116.659 39.7424 116.47 39.7779 116.28 39.7727C116.09 39.7674 115.903 39.7213 115.732 39.6377C115.561 39.554 115.41 39.4346 115.289 39.2876C115.168 39.1406 115.08 38.9694 115.031 38.7855C114.982 38.6016 114.973 38.4094 115.005 38.2217C115.038 37.3966 115.134 36.5581 115.161 35.743C115.187 34.9844 115.247 34.2292 115.284 33.4706C115.331 32.5756 115.384 31.6773 115.434 30.7823C115.467 30.22 115.514 29.6611 115.534 29.0988C115.535 28.9193 115.574 28.7421 115.647 28.5782C115.72 28.4142 115.826 28.267 115.958 28.1457C116.09 28.0243 116.246 27.9314 116.416 27.8728C116.585 27.8141 116.765 27.7909 116.944 27.8045C117.12 27.8179 117.291 27.8661 117.448 27.9461C117.605 28.0261 117.744 28.1365 117.858 28.2708C117.972 28.4051 118.058 28.5607 118.111 28.7285C118.165 28.8964 118.184 29.0731 118.169 29.2485C118.112 30.0437 118.062 30.8422 118.009 31.6407C118 31.7381 118.018 31.8361 118.062 31.9235C118.309 32.4254 118.648 32.8767 119.06 33.2543V27.6814C119.055 27.5961 119.055 27.5106 119.06 27.4253C119.077 27.2522 118.984 27.2123 118.834 27.2123C118.255 27.2123 117.676 27.2123 117.097 27.2123C116.878 27.2186 116.661 27.1645 116.47 27.056C116.28 26.9474 116.123 26.7886 116.016 26.5968C115.896 26.4022 115.83 26.1796 115.822 25.9513C115.815 25.7229 115.868 25.4966 115.975 25.2949C116.082 25.0931 116.241 24.9229 116.434 24.8011C116.627 24.6793 116.849 24.6102 117.077 24.6005C117.643 24.5806 118.209 24.6005 118.771 24.6005C118.98 24.6005 119.07 24.554 119.064 24.3211C119.047 23.6557 119.047 22.9902 119.064 22.3248C119.064 22.0886 118.974 22.0453 118.767 22.0487C118.202 22.0487 117.64 22.0487 117.074 22.0487C116.912 22.0504 116.752 22.0202 116.602 21.9597C116.452 21.8992 116.315 21.8096 116.2 21.6962C116.084 21.5827 115.992 21.4475 115.93 21.2985C115.867 21.1494 115.834 20.9894 115.833 20.8276C115.811 20.489 115.923 20.1553 116.144 19.8983C116.366 19.6413 116.679 19.4816 117.017 19.4535C117.596 19.4535 118.175 19.4535 118.754 19.4535C119.05 19.4535 119.05 19.4535 119.057 19.1441C119.014 18.7937 119.075 18.4384 119.233 18.1227C119.387 17.886 119.612 17.7043 119.876 17.6038C120.139 17.5033 120.428 17.4893 120.7 17.5637C120.97 17.6276 121.209 17.7808 121.38 17.9983C121.551 18.2158 121.644 18.4848 121.642 18.7615V18.8014C121.642 19.4668 121.642 19.4668 122.281 19.4668H122.873C123.186 19.4721 123.487 19.5894 123.721 19.7976C123.955 20.0058 124.106 20.291 124.147 20.6014C124.181 20.9036 124.111 21.2083 123.95 21.4661C123.789 21.7239 123.545 21.9198 123.259 22.022C122.981 22.0681 122.699 22.0826 122.417 22.0653C122.171 22.0653 121.858 21.9522 121.692 22.1285C121.526 22.3049 121.649 22.5877 121.645 22.8239C121.645 23.303 121.645 23.7854 121.645 24.2645C121.645 24.6238 121.645 24.5972 121.998 24.5972C122.294 24.5972 122.59 24.5972 122.886 24.5972C123.206 24.6116 123.509 24.7406 123.742 24.9606C123.974 25.1805 124.119 25.4767 124.151 25.795C124.177 26.0987 124.098 26.4022 123.927 26.6548C123.756 26.9073 123.504 27.0936 123.212 27.1824C122.92 27.2273 122.623 27.2407 122.327 27.2223C122.118 27.2223 121.855 27.1358 121.712 27.2622C121.569 27.3887 121.659 27.6881 121.649 27.9077C121.649 28.2404 121.649 28.5731 121.649 28.8825C121.649 29.0422 121.695 29.1187 121.865 29.1121C122.035 29.1054 122.144 29.1121 122.288 29.1121C123.059 29.1387 123.495 29.681 123.522 30.5161C123.496 30.8374 123.352 31.1376 123.118 31.3593C122.884 31.581 122.576 31.7084 122.254 31.7172C121.652 31.6706 121.649 31.7172 121.649 32.2994C121.649 33.1179 121.649 33.9364 121.649 34.7548C121.635 34.8565 121.66 34.9595 121.719 35.0438C121.777 35.1281 121.865 35.1875 121.965 35.2107C123.1 35.6657 124.29 35.9667 125.505 36.1056C126.523 36.2298 127.547 36.2876 128.572 36.2787C130.549 36.2787 132.522 36.2787 134.498 36.2787C134.788 36.2674 135.073 36.3551 135.306 36.5275C135.54 36.6998 135.708 36.9465 135.782 37.2269C135.831 37.4123 135.84 37.6061 135.807 37.795C135.774 37.9839 135.701 38.1635 135.592 38.3215C135.483 38.4795 135.342 38.6121 135.177 38.7103C135.012 38.8085 134.828 38.8699 134.638 38.8904C134.525 38.8904 134.411 38.8904 134.305 38.8904C132.119 38.8904 129.933 38.8904 127.747 38.8904C125.568 38.9085 123.404 38.5367 121.356 37.7925C120.194 37.3626 119.105 36.7554 118.129 35.9925L117.896 35.8095C117.867 35.8026 117.838 35.7981 117.809 35.7962Z" fill="black" fill-opacity="0.85"/>
<path d="M72.0715 36.2653C72.4208 35.7833 72.6625 35.2319 72.7802 34.6484C73.0026 33.7208 73.1539 32.7776 73.2326 31.827C73.3391 30.6625 73.3901 29.498 73.3857 28.3335C73.3857 27.3787 73.3092 26.4271 73.2792 25.4722C73.2792 25.256 73.1595 25.256 73.0097 25.2593H69.8357C69.483 25.2593 69.1303 25.2593 68.7777 25.2593C68.3352 25.2593 68.3851 25.2027 68.3817 25.6752C68.3817 26.7731 68.4084 27.8744 68.3817 28.9723C68.3678 30.9598 67.969 32.9257 67.2073 34.7615C66.6865 36.0453 65.8332 37.1672 64.7352 38.0121C63.9171 38.6123 62.9725 39.0174 61.9738 39.1965C61.7945 39.2538 61.6052 39.2725 61.4182 39.2513C61.2313 39.23 61.0509 39.1694 60.8891 39.0733C60.7273 38.9773 60.5877 38.8481 60.4795 38.6941C60.3713 38.5402 60.297 38.365 60.2615 38.1802C60.226 37.9955 60.23 37.8052 60.2734 37.6222C60.3168 37.4391 60.3985 37.2672 60.5131 37.118C60.6278 36.9688 60.7727 36.8456 60.9385 36.7566C61.1042 36.6675 61.287 36.6146 61.4747 36.6014C62.0711 36.486 62.6351 36.2419 63.1276 35.8862C63.62 35.5306 64.029 35.0718 64.326 34.5419C64.9433 33.4837 65.3521 32.317 65.5304 31.105C65.694 30.1647 65.7697 29.2113 65.7567 28.257C65.7567 27.3521 65.7567 26.4504 65.7567 25.5488C65.7567 25.3225 65.6835 25.2626 65.4672 25.266C64.2661 25.266 63.0684 25.266 61.8706 25.266C61.5963 25.2716 61.3272 25.1898 61.1024 25.0325C60.8775 24.8753 60.7085 24.6506 60.6196 24.3909C60.5324 24.1123 60.5377 23.813 60.6349 23.5376C60.7321 23.2623 60.9158 23.0259 61.1586 22.8638C61.387 22.7231 61.6526 22.6547 61.9205 22.6675H65.5437C65.6901 22.6675 65.74 22.5943 65.7334 22.4579C65.7267 22.3215 65.7334 22.2616 65.7334 22.1618V18.8646C65.7213 18.6091 65.7874 18.3559 65.923 18.1389C66.0585 17.922 66.257 17.7515 66.492 17.6502C66.6941 17.5496 66.9189 17.5033 67.1444 17.5159C67.3698 17.5285 67.5881 17.5995 67.7777 17.722C67.9674 17.8446 68.1219 18.0143 68.2261 18.2147C68.3302 18.415 68.3804 18.639 68.3718 18.8646C68.3718 19.9792 68.3718 21.0938 68.3718 22.1917C68.3718 22.2882 68.3718 22.388 68.3718 22.4878C68.3718 22.5877 68.425 22.6642 68.5481 22.6575C68.6712 22.6509 68.7477 22.6575 68.8442 22.6575H74.2275C75.2955 22.6575 75.7646 23.09 75.8278 24.1647C75.8644 24.8301 75.911 25.4955 75.9575 26.141C76.0374 27.3221 76.0474 28.5032 76.0241 29.6843C76.0263 31.5683 75.7916 33.4451 75.3254 35.2705C75.1182 36.1461 74.7541 36.9769 74.2507 37.7226C73.8873 38.2622 73.3866 38.6952 72.8001 38.9769C72.5878 39.0887 72.3503 39.1443 72.1104 39.1385C71.8705 39.1327 71.6361 39.0656 71.4294 38.9437C70.7639 38.5677 70.0985 38.205 69.4531 37.8191C69.2081 37.6627 69.0211 37.4304 68.9206 37.1577C68.8201 36.885 68.8117 36.5868 68.8965 36.3089C68.9814 36.0309 69.1549 35.7884 69.3906 35.6183C69.6263 35.4482 69.9111 35.36 70.2017 35.367C70.4258 35.3915 70.6417 35.4653 70.8338 35.5833C71.2497 35.8162 71.6523 36.0391 72.0715 36.2653Z" fill="black" fill-opacity="0.85"/>
<path d="M141.658 26.8396L139.425 27.342C139.093 27.4152 138.76 27.4884 138.427 27.5516C138.089 27.6333 137.733 27.5773 137.436 27.396C137.139 27.2148 136.927 26.9231 136.845 26.5851C136.764 26.2472 136.82 25.8906 137.001 25.5939C137.182 25.2972 137.474 25.0847 137.812 25.0031L141.139 24.2512C141.165 24.2512 141.195 24.2512 141.222 24.2512C141.648 24.158 141.648 24.158 141.648 23.7022C141.648 22.0952 141.648 20.4849 141.648 18.8779C141.626 18.5801 141.713 18.2846 141.891 18.0451C142.069 17.8057 142.328 17.6384 142.619 17.5737C142.82 17.5219 143.029 17.5174 143.231 17.5607C143.433 17.604 143.623 17.6937 143.784 17.8229C143.946 17.952 144.075 18.117 144.161 18.3048C144.248 18.4925 144.29 18.6979 144.283 18.9045C144.283 20.2853 144.283 21.6693 144.283 23.0501V23.4992C144.677 23.4742 145.067 23.4027 145.444 23.2863C146.951 22.9536 148.439 22.561 149.966 22.2882C151.563 21.9921 152.987 22.571 153.719 24.1081C153.997 24.7593 154.056 25.483 153.888 26.1709C153.641 27.2152 153.143 28.1835 152.438 28.9923C151.654 29.9515 150.768 30.8227 149.796 31.5907C149.617 31.7383 149.403 31.8367 149.175 31.8762C148.947 31.9156 148.712 31.8949 148.495 31.8159C148.277 31.7369 148.083 31.6025 147.934 31.4259C147.784 31.2493 147.682 31.0366 147.64 30.8089C147.594 30.5742 147.614 30.3315 147.698 30.1077C147.782 29.8839 147.927 29.6878 148.116 29.5412C148.632 29.1243 149.125 28.6801 149.593 28.2104C150.125 27.6885 150.589 27.1016 150.974 26.4637C151.155 26.1788 151.275 25.8593 151.326 25.5254C151.345 25.4445 151.344 25.3605 151.325 25.2797C151.306 25.199 151.269 25.1237 151.216 25.0595C151.163 24.9954 151.097 24.944 151.021 24.9095C150.946 24.8749 150.864 24.858 150.781 24.86C150.64 24.8525 150.499 24.8648 150.362 24.8966C148.439 25.3358 146.512 25.775 144.582 26.1909C144.313 26.2474 144.276 26.3539 144.28 26.5801C144.28 27.3986 144.28 28.2171 144.28 29.0355C144.28 30.3897 144.28 31.7438 144.28 33.0979C144.277 33.6614 144.359 34.2221 144.523 34.7615C144.608 35.0901 144.781 35.3897 145.022 35.6291C145.263 35.8684 145.564 36.0387 145.893 36.1222C146.397 36.255 146.916 36.3188 147.437 36.3119H152.471C152.761 36.2931 153.049 36.3667 153.294 36.5221C153.539 36.6776 153.729 36.9069 153.835 37.1769C153.911 37.3825 153.935 37.6036 153.905 37.8206C153.874 38.0377 153.791 38.2439 153.662 38.4209C153.533 38.598 153.362 38.7405 153.165 38.8358C152.968 38.931 152.75 38.976 152.531 38.9669C151.756 38.9669 150.98 38.9669 150.202 38.9669C149.423 38.9669 148.678 38.9669 147.916 38.9669C147.134 38.9587 146.355 38.8807 145.587 38.734C143.628 38.3248 142.413 37.147 141.927 35.2106C141.741 34.4607 141.648 33.6909 141.648 32.9182C141.648 31.0717 141.648 29.2252 141.648 27.3753L141.658 26.8396Z" fill="black" fill-opacity="0.85"/>
<path d="M182.149 21.3466C182.299 21.3821 182.454 21.3911 182.608 21.3732H189.205C189.54 21.3481 189.871 21.4542 190.128 21.6692C190.385 21.8842 190.548 22.191 190.583 22.5244C190.61 22.8566 190.61 23.1904 190.583 23.5225C190.324 26.2786 189.433 28.938 187.981 31.2946C187.953 31.3283 187.932 31.3671 187.919 31.4089C187.906 31.4507 187.901 31.4946 187.905 31.5382C187.909 31.5817 187.922 31.6241 187.942 31.6628C187.963 31.7015 187.991 31.7358 188.024 31.7638C188.107 31.8536 188.191 31.9534 188.277 32.0432C188.846 32.6288 189.418 33.211 189.991 33.7966C190.176 33.9824 190.303 34.2189 190.354 34.4765C190.406 34.734 190.38 35.001 190.28 35.2439C190.195 35.485 190.036 35.6936 189.827 35.8408C189.618 35.988 189.368 36.0666 189.112 36.0657C188.922 36.078 188.731 36.047 188.554 35.975C188.377 35.903 188.219 35.7918 188.091 35.6498C187.585 35.1208 187.073 34.5984 186.564 34.0694C186.467 33.9696 186.384 33.8532 186.278 33.7201C185.705 34.3855 185.15 34.9644 184.574 35.5334C183.115 36.9399 181.5 38.1745 179.76 39.2131C179.486 39.4033 179.151 39.4838 178.821 39.4388C178.491 39.3939 178.189 39.2267 177.976 38.9702C177.859 38.8204 177.774 38.6478 177.727 38.4633C177.68 38.2789 177.672 38.0866 177.703 37.8988C177.734 37.711 177.804 37.5317 177.909 37.3725C178.013 37.2133 178.149 37.0776 178.309 36.974C179.183 36.4614 180.022 35.8924 180.821 35.2705C182.13 34.2564 183.324 33.1016 184.381 31.827C184.008 31.4344 183.649 31.0518 183.283 30.6725C182.664 30.0337 182.042 29.4015 181.427 28.7627C181.185 28.5142 181.049 28.1812 181.049 27.8345C181.049 27.4877 181.185 27.1547 181.427 26.9062C181.663 26.659 181.987 26.5148 182.329 26.5049C182.671 26.4949 183.003 26.62 183.253 26.853C183.988 27.5583 184.654 28.2803 185.359 29.0089C185.536 29.1919 185.692 29.3782 185.875 29.5579C185.998 29.5213 186.028 29.4215 186.071 29.3416C186.953 27.7739 187.551 26.0631 187.838 24.2878C187.878 24.015 187.881 24.0083 187.592 24.0083C185.519 24.0083 183.446 24.0083 181.373 24.0083C181.301 24.0045 181.229 24.0246 181.169 24.0654C181.109 24.1063 181.064 24.1657 181.041 24.2345C180.622 25.1581 180.114 26.0384 179.524 26.8629C178.834 27.8406 177.969 28.6812 176.972 29.3416C176.704 29.5276 176.377 29.6087 176.053 29.5694C175.729 29.5302 175.431 29.3733 175.215 29.1287C174.786 28.7028 174.809 27.5949 175.408 27.2123C176.895 26.2574 177.83 24.8501 178.565 23.2896C179.252 21.8051 179.749 20.2402 180.046 18.6317C180.098 18.3515 180.238 18.0954 180.447 17.901C180.655 17.7066 180.92 17.5842 181.203 17.5518C181.486 17.5194 181.772 17.5787 182.019 17.721C182.266 17.8633 182.461 18.081 182.574 18.3423C182.686 18.6477 182.699 18.9806 182.611 19.2938C182.488 19.9126 182.348 20.5282 182.165 21.1337C182.136 21.2009 182.131 21.2757 182.149 21.3466Z" fill="black" fill-opacity="0.85"/>
<path d="M49.7434 22.6741H52.3252C52.9108 22.6741 52.9108 22.6741 52.9108 22.1085C52.9108 21.0206 52.9108 19.9359 52.9108 18.8513C52.9005 18.5606 52.9894 18.2751 53.163 18.0417C53.3365 17.8083 53.5843 17.6409 53.8657 17.567C54.0574 17.5173 54.2579 17.511 54.4524 17.5486C54.6469 17.5862 54.8306 17.6668 54.99 17.7845C55.1494 17.9021 55.2805 18.0538 55.3738 18.2286C55.4671 18.4034 55.5202 18.5968 55.5292 18.7947C55.5292 19.1274 55.5292 19.4602 55.5292 19.8128V22.3082C55.5292 22.6675 55.5292 22.6708 55.9052 22.6708H57.5122C57.8097 22.66 58.1016 22.754 58.3369 22.9364C58.5722 23.1188 58.736 23.3781 58.7997 23.6689C58.8722 23.9664 58.8379 24.2799 58.7029 24.5547C58.568 24.8295 58.3408 25.0483 58.0611 25.1728C57.9077 25.2418 57.7399 25.2726 57.572 25.2626C56.9931 25.2626 56.4142 25.2626 55.8353 25.2626C55.5359 25.2626 55.5325 25.2626 55.5292 25.562C55.5292 26.6334 55.5292 27.708 55.5292 28.7793C55.528 30.5327 55.2426 32.2743 54.6841 33.9363C54.2425 35.3062 53.47 36.5461 52.435 37.5462C51.503 38.4113 50.3363 38.9819 49.0813 39.1865C48.7633 39.2005 48.4507 39.1 48.2004 38.9033C47.9501 38.7066 47.7786 38.4267 47.717 38.1144C47.6554 37.8021 47.7079 37.478 47.8648 37.201C48.0217 36.924 48.2727 36.7124 48.5723 36.6047C50.0661 36.3185 51.0376 35.4036 51.723 34.1127C52.2298 33.0776 52.5668 31.9677 52.7211 30.8255C52.8799 29.6582 52.94 28.4795 52.9008 27.3021C52.9008 26.7099 52.9008 26.1177 52.9008 25.5255C52.9008 25.3192 52.8442 25.2593 52.638 25.2659C52.1189 25.2659 51.5966 25.2659 51.0742 25.2659C49.7068 25.2659 48.336 25.2659 46.9686 25.2659C46.4828 25.2659 46.5361 25.1961 46.5361 25.6852C46.5361 27.2223 46.5361 28.7594 46.5361 30.2965C46.5714 30.4824 46.5667 30.6736 46.5223 30.8575C46.4779 31.0414 46.3948 31.2137 46.2785 31.3629C46.1622 31.5122 46.0155 31.6349 45.8481 31.723C45.6806 31.811 45.4963 31.8624 45.3075 31.8736C45.1186 31.8848 44.9296 31.8556 44.7529 31.788C44.5762 31.7203 44.416 31.6158 44.2829 31.4814C44.1498 31.3469 44.0469 31.1857 43.981 31.0083C43.9152 30.831 43.8879 30.6416 43.901 30.4529C43.901 28.9025 43.901 27.3487 43.901 25.7949C43.896 25.6963 43.896 25.5975 43.901 25.4988C43.9176 25.3125 43.8378 25.246 43.6581 25.2593C43.5317 25.2593 43.4019 25.2593 43.2755 25.2593C42.8113 25.231 42.3457 25.231 41.8815 25.2593C41.2593 25.3358 40.5872 24.6305 40.5806 23.9883C40.5803 23.6439 40.7137 23.3127 40.9526 23.0645C41.1914 22.8163 41.5173 22.6704 41.8615 22.6575C42.4404 22.6775 43.0193 22.6575 43.5982 22.6575C43.891 22.6575 43.8977 22.6575 43.8977 22.3481C43.8977 21.1769 43.8977 20.0191 43.8977 18.838C43.8799 18.5472 43.9647 18.2593 44.1374 18.0246C44.3101 17.79 44.5596 17.6233 44.8426 17.5537C45.0428 17.4975 45.2534 17.489 45.4575 17.5289C45.6616 17.5688 45.8535 17.656 46.0179 17.7834C46.1822 17.9109 46.3144 18.0751 46.4038 18.2628C46.4932 18.4506 46.5374 18.6567 46.5327 18.8646C46.5327 19.6698 46.5327 20.4749 46.5327 21.2768C46.5327 21.5895 46.5327 21.8989 46.5327 22.2083C46.5327 22.724 46.4629 22.6575 46.9752 22.6575L49.7434 22.6741Z" fill="black" fill-opacity="0.85"/>
<path d="M130.619 33.4639C130.116 34.1626 129.684 34.838 129.188 35.4601C128.991 35.7362 128.702 35.9322 128.373 36.0124C128.132 36.0779 127.877 36.0705 127.64 35.9912C127.403 35.9118 127.195 35.7641 127.042 35.5666C126.896 35.3948 126.797 35.1873 126.757 34.9653C126.717 34.7433 126.736 34.5146 126.812 34.3023C126.87 34.1284 126.961 33.967 127.079 33.8265C127.997 32.6488 128.779 31.3811 129.574 30.1202C129.664 29.9628 129.688 29.7761 129.64 29.6011C129.501 28.7993 129.351 28.0008 129.228 27.199C129.053 26.0167 128.888 24.8356 128.735 23.6556C128.709 23.4327 128.642 23.3628 128.433 23.3728C128.223 23.3828 127.924 23.3728 127.671 23.3728C127.528 23.3728 127.464 23.4294 127.471 23.5758C127.471 23.6589 127.471 23.7421 127.471 23.8286V28.4067C127.471 28.796 127.471 28.796 127.85 28.8592C128.088 28.8831 128.315 28.9707 128.508 29.1126C128.7 29.2546 128.85 29.4457 128.943 29.666C129.036 29.8862 129.068 30.1274 129.036 30.3642C129.003 30.6011 128.907 30.8248 128.759 31.0118C128.619 31.1697 128.455 31.3045 128.273 31.4111C127.125 32.173 125.971 32.9282 124.819 33.6835C124.616 33.8338 124.382 33.9382 124.134 33.9896C123.84 34.0468 123.535 34.0012 123.27 33.8604C123.006 33.7196 122.797 33.4922 122.681 33.2162C122.564 32.9402 122.545 32.6325 122.628 32.3444C122.711 32.0564 122.89 31.8056 123.136 31.634C123.532 31.339 123.944 31.0669 124.37 30.8189C124.564 30.7297 124.724 30.5808 124.827 30.394C124.93 30.2072 124.971 29.9923 124.943 29.7808C124.909 27.2289 124.943 24.677 124.916 22.1285C124.906 21.9428 124.935 21.757 125.001 21.5832C125.067 21.4095 125.169 21.2515 125.3 21.1195C125.431 20.9875 125.589 20.8845 125.762 20.817C125.935 20.7495 126.121 20.7191 126.307 20.7278C127.012 20.7278 127.714 20.7278 128.433 20.7278C128.433 20.1988 128.356 19.7064 128.329 19.2106C128.329 19.0709 128.31 18.9278 128.313 18.7881C128.317 18.4687 128.439 18.1621 128.655 17.9266C128.87 17.6911 129.165 17.5433 129.483 17.5112C129.801 17.4791 130.119 17.5651 130.378 17.7527C130.636 17.9403 130.817 18.2165 130.885 18.5286C130.985 19.1042 131.008 19.6964 131.064 20.2786C131.064 20.3352 131.064 20.3951 131.064 20.4483C131.088 20.6379 131.161 20.7378 131.397 20.7311C131.989 20.7145 132.582 20.7311 133.174 20.7311C133.414 20.7167 133.653 20.7691 133.865 20.8824C134.077 20.9958 134.254 21.1657 134.375 21.3732C134.494 21.5796 134.556 21.8143 134.554 22.0528C134.551 22.2912 134.485 22.5247 134.362 22.7287C134.238 22.9327 134.062 23.0999 133.852 23.2126C133.642 23.3253 133.405 23.3795 133.167 23.3695C132.675 23.3695 132.169 23.3695 131.687 23.3695C131.42 23.3695 131.42 23.3695 131.454 23.6456C131.551 24.4109 131.649 25.1761 131.746 25.9413C131.763 26.0478 131.796 26.1509 131.84 26.3239C132.039 25.9713 132.219 25.6585 132.382 25.3691C132.545 25.0911 132.804 24.8819 133.11 24.7804C133.416 24.6788 133.748 24.6917 134.045 24.8168C134.208 24.8846 134.355 24.985 134.477 25.1116C134.6 25.2383 134.695 25.3886 134.757 25.5534C134.82 25.7182 134.848 25.8939 134.84 26.0699C134.832 26.2459 134.788 26.4184 134.711 26.5768C134.495 27.0326 134.228 27.4651 133.976 27.9076C133.57 28.613 133.164 29.3217 132.738 30.017C132.651 30.1267 132.595 30.2577 132.576 30.3963C132.556 30.535 132.574 30.6763 132.628 30.8055C132.684 30.9674 132.729 31.1331 132.761 31.3013C132.971 30.9686 133.137 30.7057 133.317 30.4429C133.457 30.2466 133.649 30.0923 133.87 29.9964C134.092 29.9004 134.335 29.8666 134.574 29.8983C134.813 29.9301 135.04 30.0264 135.228 30.1768C135.417 30.3272 135.561 30.5262 135.646 30.7523C135.721 30.9661 135.742 31.195 135.708 31.4189C135.673 31.6428 135.585 31.8549 135.449 32.0366C135.147 32.4924 134.861 32.9615 134.564 33.4206C134.238 33.9308 133.911 34.4398 133.583 34.9478C133.486 35.1117 133.354 35.2517 133.195 35.3571C133.037 35.4626 132.857 35.5308 132.668 35.5566C132.397 35.6016 132.119 35.5618 131.872 35.4427C131.625 35.3235 131.421 35.1309 131.287 34.8912C131.164 34.6716 131.054 34.4421 130.955 34.2258C130.855 34.0095 130.755 33.7467 130.619 33.4639Z" fill="black" fill-opacity="0.85"/>
<path d="M102.784 31.6307C102.632 31.5842 102.472 31.5717 102.315 31.5941H96.8185C96.587 31.6123 96.3547 31.5718 96.143 31.4765C95.9313 31.3811 95.7471 31.2339 95.6074 31.0484C95.4526 30.8469 95.3674 30.6005 95.3646 30.3464C95.3646 28.2736 95.3646 26.2009 95.3646 24.1281C95.3876 23.7977 95.533 23.4879 95.7724 23.259C96.0117 23.0301 96.3277 22.8987 96.6588 22.8904C98.4188 22.917 100.182 22.8904 101.946 22.8904C102.042 22.8904 102.142 22.8904 102.242 22.8904C102.425 22.9104 102.485 22.8305 102.481 22.6509C102.481 22.1684 102.481 21.6893 102.481 21.2102C102.481 20.9307 102.481 20.6479 102.481 20.3651C102.481 20.2254 102.431 20.1555 102.285 20.1622C102.139 20.1688 102.089 20.1622 101.989 20.1622H96.8185C96.615 20.1733 96.4115 20.1414 96.2212 20.0686C96.0309 19.9958 95.858 19.8837 95.7139 19.7396C95.5351 19.5578 95.4148 19.3265 95.3686 19.0757C95.3223 18.8249 95.3522 18.566 95.4544 18.3323C95.5408 18.0922 95.6988 17.8843 95.907 17.7368C96.1152 17.5892 96.3637 17.5091 96.6189 17.5072C96.8285 17.4872 97.0414 17.5072 97.251 17.5072C99.367 17.5072 101.483 17.5271 103.596 17.5072C103.8 17.4922 104.004 17.5208 104.196 17.5912C104.388 17.6617 104.563 17.7722 104.709 17.9155C104.854 18.0587 104.968 18.2314 105.042 18.4221C105.115 18.6127 105.148 18.8169 105.136 19.021C105.11 20.6845 105.113 22.3747 105.136 24.0549C105.146 24.2509 105.115 24.4469 105.045 24.6302C104.974 24.8135 104.867 24.98 104.728 25.1192C104.59 25.2583 104.424 25.3669 104.241 25.438C104.058 25.5091 103.862 25.5412 103.666 25.5321C101.902 25.5022 100.139 25.5321 98.3789 25.5321C97.9896 25.5321 98.0196 25.4922 98.0196 25.9014C98.0196 26.8164 98.0196 27.7347 98.0196 28.6496C98.0196 28.9557 98.0196 28.9457 98.3257 28.9457H104.078C104.317 28.935 104.555 28.9758 104.777 29.0655C105.005 29.1499 105.201 29.3026 105.338 29.5027C105.476 29.7028 105.548 29.9406 105.545 30.1834C105.502 32.4225 105.146 34.5985 104.128 36.6213C103.731 37.4337 103.15 38.1423 102.431 38.6908C102.01 38.9964 101.541 39.2303 101.044 39.3828C100.921 39.4155 100.794 39.4267 100.668 39.4161C99.3571 39.4161 98.0429 39.3895 96.732 39.4161C96.3957 39.4019 96.0773 39.2609 95.8409 39.0213C95.6044 38.7818 95.4675 38.4616 95.4577 38.1252C95.4501 37.9548 95.4768 37.7846 95.5362 37.6248C95.5956 37.4649 95.6864 37.3186 95.8034 37.1945C95.9204 37.0704 96.0611 36.971 96.2171 36.9023C96.3732 36.8335 96.5415 36.7968 96.712 36.7943C97.81 36.7943 98.9112 36.7943 100.009 36.7943C100.193 36.7997 100.377 36.7677 100.548 36.7003C100.72 36.6328 100.876 36.5312 101.007 36.4017C101.509 35.9242 101.885 35.3298 102.102 34.6716C102.458 33.6913 102.688 32.6693 102.784 31.6307Z" fill="black" fill-opacity="0.85"/>
<path d="M86.8938 27.8278C86.5611 28.094 86.2284 28.3535 85.8957 28.5997C84.0464 29.9778 81.9619 31.0082 79.7439 31.6407C78.5328 31.99 77.8275 31.0917 77.9672 30.1934C78.0031 29.9335 78.1181 29.6909 78.2967 29.4986C78.4753 29.3063 78.7088 29.1737 78.9654 29.1188C79.7214 28.9009 80.4617 28.6319 81.1812 28.3136C82.7511 27.6177 84.2017 26.679 85.4798 25.5321C85.9719 25.0922 86.4384 24.6245 86.8772 24.1314C88.3621 22.494 89.4945 20.5688 90.2043 18.4754C90.2731 18.246 90.4025 18.0395 90.5789 17.8776C90.7552 17.7156 90.972 17.6043 91.2064 17.5552C91.4407 17.5062 91.684 17.5212 91.9105 17.5989C92.137 17.6765 92.3383 17.8138 92.4933 17.9963C92.6389 18.1611 92.7388 18.3611 92.7831 18.5765C92.8275 18.7918 92.8147 19.0151 92.7462 19.224C92.5265 19.937 92.2449 20.6295 91.9044 21.2934C91.3181 22.5257 90.6008 23.6914 89.7651 24.7702C89.6277 24.9452 89.5569 25.1634 89.5655 25.3858C89.5655 29.6001 89.5655 33.8144 89.5655 38.0287C89.5793 38.2395 89.5427 38.4504 89.4588 38.6442C89.3749 38.8381 89.2461 39.0091 89.0831 39.1433C88.9145 39.2821 88.7139 39.3765 88.4995 39.4179C88.2851 39.4592 88.0637 39.4462 87.8556 39.38C87.6475 39.3139 87.4593 39.1967 87.3082 39.0391C87.157 38.8815 87.0477 38.6885 86.9903 38.4779C86.9388 38.2746 86.9153 38.0653 86.9205 37.8557C86.9205 34.655 86.9205 31.4544 86.9205 28.2537C86.9394 28.1114 86.9304 27.9667 86.8938 27.8278Z" fill="black" fill-opacity="0.85"/>
<path d="M173.674 23.476C173.548 26.5768 172.906 29.4647 171.229 32.0565C169.644 34.4754 167.342 36.337 164.645 37.3799C163.019 38.0365 161.31 38.4675 159.568 38.6608C159.069 38.7207 158.569 38.7473 158.064 38.7773C157.892 38.7975 157.717 38.7824 157.552 38.7329C157.386 38.6833 157.232 38.6004 157.099 38.4892C156.966 38.3779 156.857 38.2408 156.78 38.0861C156.702 37.9314 156.657 37.7624 156.646 37.5895C156.61 36.7344 157.116 36.1522 157.924 36.1389C160.175 36.1155 162.393 35.5904 164.415 34.6018C165.774 33.961 166.989 33.0504 167.984 31.9253C168.98 30.8002 169.737 29.4842 170.208 28.0574C170.64 26.7951 170.9 25.4801 170.98 24.148C170.996 23.8985 171.019 23.6457 171.026 23.3961C171.002 23.208 171.019 23.017 171.075 22.8359C171.131 22.6548 171.225 22.4877 171.351 22.3459C171.477 22.204 171.631 22.0907 171.804 22.0135C171.978 21.9363 172.165 21.897 172.355 21.8982C172.544 21.8994 172.732 21.941 172.904 22.0204C173.076 22.0998 173.229 22.2151 173.353 22.3585C173.477 22.5019 173.569 22.6701 173.623 22.852C173.676 23.0338 173.691 23.225 173.664 23.4128L173.674 23.476Z" fill="black" fill-opacity="0.85"/>
<path d="M111.291 28.44V38.0453C111.285 38.3624 111.165 38.6667 110.955 38.9035C110.744 39.1403 110.455 39.294 110.141 39.337C109.827 39.3799 109.508 39.3092 109.241 39.1377C108.974 38.9662 108.777 38.705 108.686 38.4013C108.66 38.2487 108.649 38.0938 108.653 37.9389C108.653 31.6329 108.653 25.3281 108.653 19.0243C108.624 18.6859 108.718 18.3484 108.919 18.0743C109.12 17.8002 109.413 17.6082 109.744 17.5338C109.924 17.5022 110.109 17.5081 110.286 17.5509C110.464 17.5938 110.631 17.6728 110.777 17.783C110.922 17.8932 111.044 18.0322 111.134 18.1914C111.223 18.3506 111.279 18.5265 111.298 18.7083C111.303 18.8069 111.303 18.9057 111.298 19.0044L111.291 28.44Z" fill="black" fill-opacity="0.85"/>
<path d="M201.895 26.5369C204.46 26.5369 207.025 26.5369 209.594 26.5369C209.842 26.5234 210.088 26.586 210.3 26.7162C210.512 26.8464 210.678 27.038 210.778 27.2656C210.897 27.4915 210.945 27.7481 210.915 28.0017C210.886 28.2553 210.78 28.4939 210.612 28.6862C210.408 28.9415 210.111 29.1063 209.787 29.1454C209.633 29.1631 209.479 29.1709 209.324 29.1687H194.432C194.208 29.183 193.984 29.1605 193.767 29.1021C193.452 29.0116 193.183 28.8043 193.015 28.5223C192.848 28.2404 192.794 27.9051 192.865 27.585C192.932 27.2912 193.095 27.0281 193.328 26.8371C193.561 26.6462 193.852 26.5382 194.153 26.5303C196.735 26.5502 199.313 26.5369 201.895 26.5369Z" fill="#221F20"/>
<path d="M158.084 20.2187C158.33 20.1934 158.578 20.2372 158.801 20.3454C159.024 20.4535 159.212 20.6217 159.345 20.8309C160.316 22.2416 161.288 23.6545 162.259 25.0696C162.608 25.5787 162.978 26.0678 163.32 26.5901C163.464 26.7936 163.543 27.035 163.549 27.2838C163.555 27.5325 163.487 27.7774 163.354 27.9875C163.233 28.2025 163.052 28.3769 162.832 28.4883C162.612 28.5997 162.364 28.6431 162.119 28.613C161.915 28.6012 161.716 28.5411 161.539 28.4376C161.362 28.3341 161.212 28.1901 161.101 28.0174C160.436 27.0592 159.77 26.1077 159.105 25.1462C158.44 24.1846 157.774 23.2298 157.129 22.2582C156.986 22.056 156.904 21.8166 156.895 21.5691C156.886 21.3216 156.948 21.0767 157.075 20.8642C157.172 20.6779 157.316 20.5202 157.493 20.4069C157.67 20.2937 157.874 20.2288 158.084 20.2187Z" fill="black" fill-opacity="0.85"/>
<path d="M132.794 16.0167C133.021 16.0092 133.245 16.0654 133.442 16.1789C133.638 16.2924 133.799 16.4587 133.906 16.6588C134.278 17.3242 134.628 17.9896 134.997 18.6551C135.098 18.8549 135.147 19.077 135.139 19.3007C135.131 19.5244 135.067 19.7425 134.953 19.9349C134.838 20.1273 134.677 20.2877 134.484 20.4013C134.291 20.5149 134.073 20.578 133.849 20.5848C133.6 20.5958 133.354 20.534 133.14 20.4069C132.926 20.2798 132.754 20.093 132.645 19.8694C132.282 19.2373 131.943 18.5885 131.607 17.9431C131.497 17.7413 131.442 17.5141 131.449 17.2846C131.455 17.055 131.522 16.8312 131.642 16.6357C131.763 16.4402 131.933 16.2801 132.135 16.1713C132.337 16.0626 132.565 16.0093 132.794 16.0167Z" fill="black" fill-opacity="0.85"/>
<path d="M157.039 5.82574C156.623 5.82574 156.227 5.82574 155.831 5.82574C155.733 5.83079 155.636 5.80897 155.55 5.76263C155.464 5.71629 155.392 5.64721 155.342 5.56289C155.29 5.47625 155.264 5.3761 155.268 5.27492C155.272 5.17375 155.306 5.07603 155.365 4.99396C155.436 4.9085 155.526 4.84142 155.628 4.79853C155.73 4.75563 155.841 4.73821 155.951 4.74776C156.334 4.74776 156.716 4.74776 157.105 4.74776C157.125 4.59471 157.159 4.46163 157.165 4.32522C157.161 4.22452 157.187 4.12493 157.24 4.03905C157.293 3.95317 157.37 3.88486 157.461 3.84279C157.567 3.79064 157.685 3.76835 157.802 3.77832C157.919 3.78829 158.032 3.83014 158.127 3.89935C158.203 3.96359 158.26 4.0474 158.293 4.14177C158.325 4.23615 158.331 4.33752 158.31 4.43501C158.31 4.5315 158.31 4.62465 158.28 4.73445L159.434 4.68121C159.9 4.66125 160.363 4.62465 160.828 4.62798C160.952 4.64063 161.066 4.70067 161.147 4.79554C161.228 4.89041 161.268 5.01276 161.261 5.13703C161.26 5.20606 161.246 5.27425 161.218 5.3377C161.191 5.40114 161.152 5.45861 161.102 5.5068C161.053 5.555 160.994 5.59299 160.93 5.6186C160.866 5.6442 160.798 5.65693 160.729 5.65605C160.126 5.686 159.524 5.70929 158.922 5.74256C158.672 5.74256 158.426 5.78248 158.16 5.80245V6.19172C158.914 6.06994 159.687 6.16096 160.393 6.45456C160.753 6.58779 161.073 6.81032 161.324 7.10128C161.575 7.39224 161.748 7.74211 161.827 8.1181C161.938 8.52839 161.933 8.96151 161.813 9.36919C161.692 9.77688 161.461 10.1431 161.145 10.4271C160.875 10.6852 160.556 10.8858 160.206 11.0168C159.857 11.1477 159.484 11.2063 159.112 11.189C158.994 11.1834 158.883 11.1344 158.799 11.0514C158.715 10.9685 158.666 10.8574 158.659 10.7399C158.636 10.3073 158.762 10.1277 159.125 10.0744C159.493 10.0262 159.846 9.89788 160.16 9.69847C160.333 9.57877 160.474 9.41892 160.572 9.23263C160.669 9.04633 160.72 8.83914 160.72 8.62881C160.72 8.41849 160.669 8.2113 160.572 8.025C160.474 7.8387 160.333 7.67885 160.16 7.55915L159.857 7.36951C159.697 7.76876 159.571 8.14805 159.398 8.5107C159.16 8.97806 158.846 9.40297 158.47 9.76834C158.411 9.8248 158.376 9.90052 158.37 9.98128C158.423 10.3473 158.37 10.5369 158.117 10.6766C157.999 10.7237 157.87 10.734 157.747 10.7061C157.623 10.6781 157.511 10.6134 157.425 10.5203C157.062 10.7116 156.657 10.811 156.247 10.8097C155.938 10.8102 155.637 10.7074 155.393 10.5175C155.149 10.3276 154.975 10.0616 154.9 9.76169C154.783 9.26734 154.81 8.74998 154.978 8.27069C155.146 7.79139 155.448 7.37018 155.848 7.05676C156.172 6.81453 156.533 6.62479 156.916 6.49448C156.942 6.48411 156.965 6.46794 156.984 6.44719C157.003 6.42645 157.018 6.40167 157.026 6.37471C157.039 6.20502 157.039 6.02536 157.039 5.82574ZM157.022 7.56913C156.743 7.68983 156.499 7.878 156.311 8.1167C156.122 8.3554 155.997 8.63714 155.944 8.93657C155.891 9.29922 156.017 9.60199 156.397 9.6652C156.679 9.67586 156.956 9.59278 157.185 9.42898C157.2 9.40636 157.207 9.37947 157.205 9.35246C157.129 8.77022 157.069 8.1913 157.006 7.56913H157.022ZM158.114 7.21979C158.134 7.65231 158.153 8.07485 158.177 8.55063C158.493 8.16557 158.709 7.70842 158.806 7.21979H158.114Z" fill="black"/>
<path d="M111.567 6.06199C111.469 6.96587 111.198 7.84243 110.769 8.64382C110.802 8.68374 110.842 8.72367 110.875 8.76692C110.925 8.81761 110.964 8.87774 110.99 8.94377C111.017 9.00979 111.029 9.08038 111.028 9.15138C111.026 9.22238 111.01 9.29235 110.981 9.35717C110.952 9.42199 110.911 9.48036 110.859 9.52883C110.818 9.58227 110.766 9.62686 110.707 9.65994C110.648 9.69302 110.584 9.71391 110.516 9.72137C110.449 9.72882 110.381 9.72268 110.317 9.70332C110.252 9.68396 110.192 9.65177 110.14 9.60868C110.047 9.53548 109.994 9.60868 109.934 9.66191C109.713 9.92121 109.426 10.1146 109.102 10.2209C108.887 10.2998 108.657 10.3316 108.428 10.3141C108.2 10.2966 107.977 10.2303 107.776 10.1196C107.576 10.009 107.401 9.85647 107.264 9.67247C107.127 9.48848 107.031 9.27725 106.983 9.05305C106.854 8.57545 106.847 8.07299 106.963 7.59209C107.079 7.11118 107.315 6.66734 107.648 6.30155C107.815 6.09859 107.924 5.93224 107.765 5.65609C107.659 5.43472 107.581 5.20118 107.532 4.96073C107.502 4.83912 107.521 4.71092 107.582 4.60217C107.644 4.49341 107.745 4.41225 107.864 4.37516C107.985 4.31307 108.125 4.30023 108.255 4.33934C108.384 4.37845 108.494 4.46645 108.56 4.58476C108.67 4.82764 108.756 5.0805 108.836 5.28678L110.499 4.88753C110.499 4.78106 110.473 4.61804 110.47 4.45833C110.464 4.32234 110.511 4.1894 110.601 4.08715C110.691 3.98491 110.816 3.92123 110.952 3.90936C111.341 3.88275 111.541 4.01916 111.587 4.36185C111.611 4.53282 111.624 4.70502 111.627 4.87755C111.627 4.994 111.647 5.05056 111.787 5.09048C112.256 5.19979 112.689 5.42804 113.043 5.75322C113.398 6.0784 113.664 6.48955 113.813 6.947C113.978 7.38279 114.036 7.85156 113.984 8.31445C113.931 8.77734 113.769 9.22101 113.511 9.60868C113.264 9.97923 112.938 10.2907 112.556 10.5207C112.175 10.7508 111.748 10.8938 111.305 10.9395C111.119 10.9655 110.933 10.9799 110.746 10.9828C110.624 10.9882 110.505 10.9456 110.414 10.8641C110.323 10.7826 110.268 10.6687 110.26 10.5469C110.227 10.1177 110.343 9.95802 110.669 9.8815C110.995 9.80498 111.411 9.74842 111.76 9.62199C112.046 9.52416 112.3 9.35155 112.496 9.12215C112.692 8.89276 112.823 8.61498 112.875 8.31776C112.962 8.0021 112.956 7.66829 112.858 7.35579C112.761 7.0433 112.576 6.76521 112.326 6.5544C112.085 6.37292 111.831 6.20839 111.567 6.06199ZM108.4 7.11003C108.075 7.51867 107.918 8.03683 107.964 8.55732C107.981 8.72544 108.058 8.88201 108.18 8.99904C108.301 9.11607 108.461 9.18593 108.63 9.19612C108.858 9.15787 109.071 9.05382 109.242 8.89668C109.269 8.8845 109.292 8.86611 109.311 8.84303C109.329 8.81995 109.342 8.79285 109.348 8.76394C109.353 8.73503 109.352 8.70514 109.344 8.67674C109.336 8.64834 109.322 8.62223 109.302 8.60057C108.999 8.10483 108.7 7.60577 108.4 7.11003ZM110.064 7.73885C110.318 7.17059 110.466 6.56049 110.499 5.93889L109.229 6.32151C109.481 6.75403 109.704 7.14663 109.931 7.53922L110.064 7.73885Z" fill="black"/>
<path d="M149.969 7.96506L149.55 7.3928C149.34 7.41609 149.13 7.44271 148.917 7.45601C148.615 7.47598 148.309 7.48596 148.002 7.50259C147.696 7.51923 147.45 7.54252 147.174 7.53919C146.841 7.53919 146.492 7.53919 146.156 7.49594C145.82 7.45269 145.68 7.18985 145.707 6.83052C145.721 6.71334 145.78 6.60635 145.872 6.53238C145.964 6.45841 146.082 6.42332 146.199 6.4346L148.349 6.47452C148.548 6.47452 148.748 6.45456 148.944 6.44458C148.947 6.42472 148.947 6.40455 148.944 6.38469C148.824 6.00873 148.595 5.89893 148.182 5.94551C147.583 5.98048 146.982 5.98048 146.382 5.94551C146.285 5.95188 146.188 5.93016 146.103 5.88296C146.018 5.83575 145.949 5.76506 145.903 5.67934C145.845 5.58902 145.819 5.4819 145.83 5.37512C145.84 5.26835 145.886 5.16811 145.96 5.09045C146.058 4.99158 146.187 4.93033 146.326 4.91744C146.865 4.91744 147.4 4.91744 147.939 4.91744H148.142C148.096 4.68454 148.049 4.47161 148.009 4.25202C147.969 4.03243 148.342 3.73965 148.638 3.79954C149.021 3.87273 149.074 4.19879 149.204 4.46496C149.257 4.57808 149.297 4.69452 149.35 4.82428C149.952 4.72447 150.544 4.62466 151.14 4.5315C151.251 4.5294 151.359 4.5677 151.444 4.63929C151.529 4.71088 151.586 4.81089 151.602 4.92077C151.646 5.50966 151.453 5.58619 150.847 5.686C150.534 5.73923 150.222 5.7725 149.882 5.81908C149.962 5.96548 150.025 6.10189 150.109 6.22499C150.13 6.24294 150.155 6.25585 150.182 6.26276C150.209 6.26967 150.238 6.27041 150.265 6.26491C150.714 6.18174 151.163 6.08525 151.616 5.99875C151.741 5.96991 151.872 5.98782 151.985 6.04911C152.098 6.1104 152.184 6.21082 152.228 6.33146C152.257 6.40824 152.268 6.49042 152.261 6.57206C152.254 6.65369 152.228 6.73273 152.187 6.80344C152.146 6.87415 152.089 6.93476 152.021 6.98088C151.953 7.02699 151.876 7.05746 151.795 7.07007C151.629 7.11 151.463 7.13329 151.29 7.16656L150.741 7.26304C150.96 7.53586 151.16 7.7987 151.376 8.04491C151.48 8.14216 151.557 8.26378 151.601 8.39863C151.645 8.53348 151.655 8.67725 151.629 8.8168C151.564 8.99018 151.433 9.13098 151.265 9.20879C151.097 9.28661 150.905 9.29519 150.731 9.23268C150.315 9.12289 149.902 8.99646 149.483 8.89997C148.931 8.76381 148.357 8.74005 147.796 8.8301C147.662 8.85786 147.536 8.91843 147.43 9.00644C147.373 9.04852 147.33 9.10578 147.304 9.17166C147.278 9.23754 147.271 9.30935 147.284 9.37885C147.298 9.44835 147.33 9.51271 147.378 9.56455C147.427 9.61638 147.488 9.65357 147.557 9.67186C147.838 9.79469 148.134 9.87756 148.438 9.91806C148.839 9.96187 149.243 9.97744 149.646 9.96464C149.942 9.95606 150.238 9.92939 150.531 9.88479C150.668 9.86577 150.808 9.89945 150.922 9.97907C151.035 10.0587 151.114 10.1783 151.143 10.314C151.2 10.6866 151.02 10.9794 150.684 10.9794C150.019 11.0193 149.353 11.0792 148.711 11.0559C148.083 11.0673 147.461 10.9269 146.898 10.6467C146.588 10.5015 146.34 10.2495 146.2 9.93672C146.06 9.62397 146.037 9.27134 146.136 8.94322C146.228 8.68372 146.389 8.45396 146.601 8.27825C146.813 8.10254 147.068 7.98743 147.34 7.9451C148.029 7.81431 148.735 7.79633 149.43 7.89186C149.606 7.90517 149.782 7.93844 149.969 7.96506Z" fill="black"/>
<path d="M128.309 6.11852H126.855C126.763 6.12967 126.67 6.11469 126.586 6.07527C126.501 6.03586 126.43 5.9736 126.38 5.8956C126.32 5.80927 126.287 5.70761 126.283 5.60279C126.28 5.49797 126.307 5.39443 126.361 5.30457C126.415 5.21471 126.494 5.14232 126.588 5.09609C126.682 5.04985 126.788 5.03172 126.892 5.04386C127.108 5.04386 127.328 5.04386 127.557 5.04386C127.787 5.04386 128.05 5.02057 128.323 5.00394C128.323 4.80764 128.323 4.62798 128.323 4.44831C128.313 4.3759 128.321 4.3023 128.344 4.23323C128.368 4.16416 128.407 4.10146 128.459 4.04999C128.511 3.99852 128.574 3.95966 128.643 3.93642C128.712 3.91318 128.786 3.90619 128.858 3.91598C129.234 3.91598 129.401 4.07235 129.401 4.43168V4.96401C129.767 4.96401 130.123 4.98398 130.472 4.96401C130.543 4.95902 130.613 4.96852 130.68 4.99194C130.747 5.01536 130.808 5.0522 130.86 5.10019C130.913 5.14818 130.954 5.20631 130.983 5.27101C131.012 5.3357 131.027 5.4056 131.028 5.47639C131.028 5.54903 131.014 5.62101 130.985 5.68786C130.957 5.7547 130.915 5.81497 130.862 5.86492C130.81 5.91486 130.747 5.9534 130.679 5.97814C130.61 6.00288 130.538 6.01329 130.465 6.00872C130.133 6.00872 129.773 6.03867 129.414 6.0553V6.64752C129.72 6.64752 130.029 6.64752 130.336 6.64752C131.051 6.64158 131.749 6.86166 132.332 7.27635C132.564 7.43868 132.755 7.65395 132.888 7.90442C133.021 8.15489 133.093 8.4334 133.097 8.71698C133.119 8.99608 133.081 9.27657 132.987 9.54024C132.893 9.8039 132.745 10.0449 132.551 10.2474C132.182 10.6405 131.691 10.8982 131.157 10.9794C130.828 11.0381 130.492 11.0505 130.159 11.016C129.86 10.9794 129.787 10.7532 129.78 10.4637C129.781 10.3415 129.824 10.2235 129.903 10.1304C129.983 10.0372 130.092 9.97502 130.212 9.95466C130.545 9.87813 130.861 9.83488 131.171 9.7384C131.316 9.70302 131.451 9.63367 131.565 9.53602C131.679 9.43836 131.767 9.31518 131.824 9.17657C131.881 9.03797 131.904 8.88787 131.892 8.73859C131.879 8.5893 131.832 8.44508 131.753 8.31773C131.67 8.1904 131.561 8.08156 131.434 7.99799C131.307 7.91442 131.164 7.8579 131.014 7.83197C130.55 7.69838 130.062 7.66548 129.584 7.73548C129.407 7.7621 129.384 7.82531 129.384 7.97171C129.384 8.69701 129.364 9.42565 129.384 10.151C129.382 10.3201 129.329 10.4847 129.231 10.6231C129.134 10.7614 128.997 10.8671 128.838 10.9262C128.342 11.1114 127.793 11.0921 127.312 10.8725C126.83 10.6529 126.455 10.2509 126.27 9.75503C126.142 9.43565 126.108 9.08664 126.171 8.74857C126.234 8.4105 126.392 8.09726 126.626 7.84528C127.033 7.39485 127.554 7.0617 128.133 6.88042C128.16 6.87685 128.185 6.86786 128.208 6.85403C128.231 6.84019 128.251 6.82179 128.267 6.79997C128.282 6.77815 128.293 6.75336 128.299 6.72714C128.304 6.70092 128.305 6.67383 128.299 6.64752C128.303 6.47119 128.309 6.28487 128.309 6.11852ZM128.309 8.00498C128.088 8.11189 127.875 8.23419 127.671 8.37096C127.555 8.4599 127.464 8.57677 127.405 8.71062C127.347 8.84447 127.324 8.9909 127.338 9.13619C127.341 9.29601 127.395 9.45068 127.493 9.57718C127.59 9.70367 127.726 9.79522 127.88 9.83821C128.213 9.92804 128.326 9.88479 128.306 9.55873C128.306 9.41234 128.306 9.26595 128.306 9.11956L128.309 8.00498Z" fill="black"/>
<path d="M66.0429 7.45936C66.0429 7.81203 66.0429 8.09483 66.0429 8.38096C66.0429 8.43087 66.1427 8.49741 66.2092 8.51737C66.7716 8.70141 67.3024 8.97072 67.783 9.31588C67.9163 9.40665 68.0213 9.53312 68.086 9.68082C68.1507 9.82852 68.1725 9.99146 68.1489 10.151C68.1187 10.2501 68.063 10.3397 67.9875 10.4107C67.912 10.4818 67.8192 10.5319 67.7184 10.5561C67.6175 10.5803 67.5121 10.5777 67.4126 10.5487C67.3131 10.5197 67.2228 10.4651 67.1508 10.3905C66.8607 10.0838 66.5138 9.83636 66.1294 9.6619H66.0895C66.0088 9.89624 65.9133 10.1252 65.8033 10.3473C65.6869 10.5198 65.535 10.6655 65.3577 10.7745C65.1803 10.8835 64.9818 10.9534 64.7753 10.9794C64.2653 11.0905 63.7338 11.0477 63.2481 10.8563C63.0572 10.7919 62.8833 10.6848 62.7397 10.5434C62.5961 10.4019 62.4866 10.2297 62.4193 10.0396C62.352 9.84964 62.3288 9.64683 62.3513 9.44652C62.3738 9.24622 62.4416 9.05365 62.5494 8.88336C62.6775 8.70155 62.8434 8.54969 63.0359 8.43826C63.2283 8.32682 63.4426 8.25846 63.664 8.2379C64.0866 8.17468 64.5224 8.18799 64.9616 8.1647V7.49928H63.9635C63.5642 7.49928 63.165 7.47599 62.769 7.49928C62.6319 7.50842 62.4966 7.46275 62.3931 7.3723C62.2896 7.28186 62.2261 7.15402 62.2167 7.01685C62.2096 6.94371 62.2186 6.86989 62.2433 6.80066C62.268 6.73143 62.3076 6.6685 62.3595 6.61637C62.4113 6.56425 62.4739 6.52421 62.543 6.49911C62.6121 6.47402 62.6859 6.46449 62.7591 6.47121C63.4245 6.45125 64.0699 6.47121 64.7287 6.47121H64.9649V5.90893H62.8722C62.7442 5.90106 62.6234 5.84665 62.5327 5.75596C62.442 5.66526 62.3876 5.54454 62.3798 5.41652C62.3649 5.29574 62.3951 5.17373 62.4644 5.07372C62.5337 4.97371 62.6374 4.9027 62.7557 4.87421C62.8764 4.84996 62.9987 4.8355 63.1217 4.83095H64.935V4.45499C64.9321 4.38229 64.9444 4.3098 64.971 4.24209C64.9977 4.17438 65.0381 4.11294 65.0897 4.06165C65.1413 4.01037 65.203 3.97035 65.2708 3.94413C65.3387 3.91791 65.4113 3.90607 65.4839 3.90935C65.7767 3.90935 66.0662 4.16886 66.0196 4.44834C66.0172 4.56036 66.0295 4.67221 66.0562 4.78105C66.5253 4.78105 66.9778 4.78105 67.4303 4.78105C67.4971 4.77371 67.5647 4.77985 67.6291 4.79911C67.6935 4.81837 67.7534 4.85035 67.8052 4.89316C67.857 4.93597 67.8997 4.98874 67.9307 5.04835C67.9618 5.10796 67.9805 5.17319 67.9859 5.24019C68.0125 5.69932 67.8229 5.78916 67.4636 5.85903C67.3662 5.86904 67.2681 5.86904 67.1708 5.85903H66.0728V6.41798H67.6033C67.6752 6.41125 67.7478 6.42002 67.816 6.44369C67.8843 6.46736 67.9467 6.50538 67.999 6.55519C68.0514 6.605 68.0924 6.66544 68.1194 6.73245C68.1464 6.79946 68.1588 6.87148 68.1556 6.94366C68.1562 7.01412 68.1423 7.08394 68.1147 7.14877C68.0871 7.2136 68.0464 7.27205 67.9952 7.32044C67.944 7.36884 67.8833 7.40616 67.8171 7.43006C67.7508 7.45396 67.6803 7.46394 67.61 7.45936C67.0909 7.44605 66.5819 7.45936 66.0429 7.45936ZM64.1897 9.9813C64.353 9.98784 64.514 9.94195 64.6493 9.85035C64.7846 9.75876 64.8871 9.62626 64.9416 9.47225C64.9649 9.40571 64.9217 9.24601 64.8784 9.2327C64.6831 9.15682 64.4736 9.12435 64.2644 9.13757C64.0553 9.15078 63.8516 9.20936 63.6673 9.30922C63.6234 9.33691 63.586 9.3739 63.5578 9.41758C63.5296 9.46127 63.5114 9.51059 63.5043 9.56208C63.5104 9.61469 63.529 9.66508 63.5585 9.70906C63.588 9.75304 63.6276 9.78934 63.674 9.81494C63.8411 9.88432 64.0136 9.93996 64.1897 9.9813Z" fill="black"/>
<path d="M91.9876 5.39985C91.3222 5.41648 90.6568 5.43644 89.9913 5.4431C89.8682 5.44054 89.7503 5.39317 89.6597 5.30986C89.569 5.22656 89.5119 5.11305 89.4989 4.99061C89.469 4.6579 89.6054 4.42833 89.8915 4.38841C90.1232 4.37673 90.3552 4.37673 90.5869 4.38841L92.7894 4.30523C93.019 4.30523 93.2486 4.28194 93.4748 4.26198C93.6035 4.24502 93.734 4.276 93.8414 4.349C93.9487 4.42201 94.0255 4.53196 94.057 4.6579C94.1063 4.79173 94.1098 4.93808 94.067 5.07411C94.0243 5.21014 93.9377 5.32819 93.8208 5.40983C93.2386 5.80908 92.653 6.20168 92.0674 6.5976C92.039 6.62109 92.0123 6.64666 91.9876 6.67412C92.2439 6.61966 92.5043 6.58628 92.7661 6.57431C93.0753 6.57919 93.3827 6.62278 93.6811 6.70407C94.1771 6.82475 94.6097 7.12736 94.8932 7.55192C95.1766 7.97649 95.2902 8.49204 95.2115 8.99644C95.1675 9.30416 95.0523 9.59735 94.875 9.85266C94.6976 10.108 94.4631 10.3183 94.1901 10.467C93.5771 10.8298 92.8723 11.0077 92.1606 10.9794C91.8079 10.9794 91.4586 10.9794 91.1092 10.9794C90.9521 10.9672 90.7963 10.9416 90.6434 10.9029C90.5374 10.8877 90.4393 10.8381 90.3642 10.7618C90.289 10.6855 90.241 10.5866 90.2276 10.4803C90.1965 10.3688 90.2014 10.2503 90.2414 10.1416C90.2814 10.033 90.3545 9.93961 90.4505 9.87479C90.6341 9.8061 90.8307 9.77883 91.0261 9.79494C91.432 9.79494 91.8345 9.8149 92.2404 9.82488C92.6554 9.84547 93.068 9.74983 93.4315 9.54873C93.9273 9.26593 94.2334 8.67038 93.9073 8.14803C93.8081 7.99043 93.674 7.85775 93.5154 7.76025C93.3567 7.66275 93.1778 7.60305 92.9924 7.58575C92.3964 7.51777 91.7928 7.56864 91.2166 7.73539C90.6404 7.90215 90.1029 8.18149 89.6353 8.55726C89.4928 8.69088 89.305 8.76574 89.1096 8.76687C89.0027 8.76602 88.8983 8.73412 88.8091 8.67506C88.7199 8.616 88.6498 8.53231 88.6073 8.43416C88.5579 8.33567 88.5416 8.2239 88.5608 8.11543C88.58 8.00695 88.6336 7.90755 88.7137 7.83195C89.0764 7.53917 89.4457 7.25304 89.825 6.98022C90.527 6.4745 91.2357 5.98209 91.9377 5.4797C91.957 5.45487 91.9738 5.42811 91.9876 5.39985Z" fill="black"/>
<path d="M120.298 5.62281C120.062 5.64943 119.852 5.67937 119.632 5.69601L117.566 5.86569C117.377 5.89236 117.186 5.89236 116.997 5.86569C116.708 5.79915 116.618 5.59952 116.645 5.23022C116.646 5.17036 116.659 5.11136 116.683 5.05669C116.708 5.00201 116.743 4.95277 116.787 4.91185C116.83 4.87094 116.882 4.83917 116.938 4.81842C116.994 4.79767 117.054 4.78836 117.114 4.79104C117.613 4.74113 118.112 4.70453 118.618 4.66128L120.537 4.49825L121.156 4.455L122.587 4.3685C122.769 4.34852 122.953 4.34852 123.136 4.3685C123.216 4.38175 123.292 4.41241 123.358 4.45828C123.425 4.50416 123.481 4.56414 123.522 4.63398C123.563 4.70381 123.588 4.7818 123.595 4.86241C123.603 4.94302 123.592 5.02429 123.565 5.10046C123.498 5.34001 123.339 5.45646 123.029 5.48973C122.328 5.55084 121.656 5.80156 121.086 6.21504C120.547 6.55128 120.162 7.08696 120.015 7.70557C119.839 8.7037 120.062 9.25267 121.086 9.64194C121.449 9.76443 121.824 9.85025 122.204 9.89813C122.637 9.97133 122.683 10.1676 122.647 10.5868C122.639 10.6609 122.616 10.7325 122.579 10.7972C122.542 10.862 122.492 10.9184 122.432 10.963C122.373 11.0077 122.305 11.0395 122.232 11.0567C122.16 11.0738 122.084 11.0758 122.011 11.0626C121.347 10.9768 120.703 10.7765 120.108 10.4704C119.806 10.3324 119.538 10.1303 119.322 9.87806C119.105 9.62581 118.947 9.32952 118.857 9.00979C118.713 8.43013 118.751 7.82013 118.967 7.26307C119.224 6.62725 119.664 6.08193 120.231 5.69601C120.256 5.67376 120.278 5.64925 120.298 5.62281Z" fill="black"/>
<path d="M139.003 10.6467C138.72 10.6267 138.434 10.6168 138.151 10.5868C138.072 10.583 137.995 10.5627 137.924 10.5272C137.853 10.4917 137.791 10.4418 137.741 10.3806C137.691 10.3195 137.654 10.2485 137.633 10.1723C137.612 10.096 137.607 10.0162 137.619 9.93803C137.628 9.8506 137.656 9.76631 137.702 9.69128C137.748 9.61625 137.81 9.55237 137.884 9.50427C137.957 9.45616 138.04 9.42505 138.128 9.41318C138.215 9.40131 138.303 9.40898 138.387 9.43564C139.222 9.62634 140.097 9.48812 140.833 9.0497C141.253 8.79999 141.561 8.3987 141.694 7.92847C141.788 7.6168 141.773 7.28252 141.653 6.98032C141.532 6.67812 141.312 6.4259 141.029 6.26492C140.431 5.9398 139.737 5.84172 139.073 5.98877C138.272 6.14845 137.499 6.423 136.777 6.80391C136.709 6.83813 136.639 6.86705 136.567 6.89041C136.436 6.94647 136.287 6.94859 136.154 6.89631C136.021 6.84404 135.914 6.74156 135.855 6.61094C135.785 6.48281 135.767 6.33199 135.807 6.19121C135.847 6.05043 135.941 5.93106 136.068 5.85901C136.607 5.58655 137.163 5.34873 137.732 5.14701C138.48 4.8905 139.272 4.78642 140.061 4.84092C140.828 4.86415 141.564 5.15215 142.143 5.65606C142.369 5.86443 142.552 6.11547 142.68 6.3947C142.809 6.67394 142.881 6.97584 142.892 7.28301C142.938 7.86198 142.809 8.44144 142.523 8.94656C142.243 9.43331 141.835 9.83298 141.342 10.1011C140.624 10.4862 139.817 10.6745 139.003 10.6467Z" fill="black"/>
<path d="M164.505 6.75403C164.581 6.21171 164.671 5.523 164.788 4.83762C164.814 4.70573 164.885 4.58691 164.989 4.50096C165.092 4.415 165.222 4.36708 165.357 4.36517C165.733 4.36517 165.916 4.48162 165.999 4.78771C166.019 4.86181 166.019 4.93986 165.999 5.01396C165.845 5.56252 165.749 6.12564 165.713 6.69414C165.653 7.41554 165.742 8.14156 165.975 8.82681C166.036 9.07686 166.191 9.29379 166.408 9.43234C166.439 9.4548 166.475 9.47053 166.512 9.47853C166.55 9.48653 166.588 9.48661 166.626 9.47879C166.664 9.47096 166.699 9.45539 166.73 9.43307C166.761 9.41076 166.788 9.38218 166.807 9.34916C166.858 9.28419 166.904 9.21643 166.947 9.14621C166.98 9.07205 167.029 9.00597 167.09 8.95254C167.151 8.89911 167.223 8.85963 167.301 8.83684C167.379 8.81404 167.461 8.80848 167.541 8.82053C167.621 8.83259 167.698 8.86198 167.765 8.90666C167.892 8.98643 167.983 9.11176 168.019 9.25668C168.056 9.40161 168.035 9.55504 167.962 9.6852C167.875 9.95298 167.713 10.1898 167.494 10.3666C167.275 10.5435 167.01 10.6527 166.73 10.681C166.45 10.7092 166.168 10.6552 165.918 10.5257C165.668 10.3961 165.461 10.1965 165.323 9.95137C164.904 9.34256 164.655 8.63269 164.601 7.89522C164.581 7.56584 164.548 7.23646 164.505 6.75403Z" fill="black"/>
<path d="M82.9412 9.69515C83.6265 9.59201 84.3884 9.48554 85.147 9.36244C85.2732 9.33556 85.4046 9.34793 85.5235 9.39788C85.6425 9.44784 85.7433 9.533 85.8124 9.64192C85.9355 9.90808 85.869 10.3406 85.6461 10.4471C85.4225 10.55 85.1827 10.6131 84.9374 10.6334C84.1655 10.6966 83.3903 10.7665 82.6084 10.7565C81.9051 10.775 81.2067 10.634 80.5656 10.3439C80.2299 10.2039 79.9604 9.94105 79.812 9.609C79.6636 9.27695 79.6475 8.90077 79.7671 8.55728C79.8259 8.34093 79.9097 8.13214 80.0166 7.93512C80.1036 7.84097 80.219 7.77795 80.3452 7.75571C80.4714 7.73347 80.6014 7.75325 80.7153 7.81201C80.8131 7.86294 80.8903 7.94601 80.9339 8.04723C80.9776 8.14844 80.985 8.2616 80.9549 8.36764C80.9349 8.44084 80.9249 8.51403 80.9017 8.58723C80.7619 9.0264 80.875 9.25265 81.3209 9.39904C81.4475 9.44849 81.5776 9.48853 81.7101 9.51881C82.1027 9.58203 82.4787 9.62861 82.9412 9.69515Z" fill="black"/>
<path d="M101.453 10.7765C100.724 10.7977 99.9967 10.7102 99.2938 10.517C98.6783 10.314 98.1493 10.0146 98.0229 9.31589C97.9465 8.82776 98.057 8.32877 98.3323 7.91851C98.4587 7.71556 98.7948 7.73885 98.9977 7.82203C99.0974 7.86846 99.1773 7.9489 99.223 8.04889C99.2687 8.14889 99.2773 8.2619 99.2473 8.36767C99.2375 8.44939 99.2185 8.52975 99.1907 8.60722C98.9778 9.02311 99.1907 9.25268 99.5633 9.38909C100.215 9.64107 100.921 9.72016 101.613 9.61866C102.238 9.52772 102.865 9.44343 103.493 9.3658C103.564 9.35081 103.637 9.35015 103.708 9.36387C103.78 9.37759 103.848 9.4054 103.908 9.44569C103.968 9.48597 104.02 9.53791 104.06 9.59846C104.1 9.65902 104.128 9.72696 104.141 9.79832C104.211 10.2275 104.068 10.4837 103.676 10.5602C103.292 10.6368 102.904 10.6934 102.514 10.7299C102.142 10.7599 101.746 10.7632 101.453 10.7765Z" fill="black"/>
<path d="M73.5288 9.81824C73.8249 9.81824 74.121 9.81824 74.4138 9.81824C75.0268 9.80517 75.6367 9.72824 76.2337 9.58867C76.5664 9.52212 76.7827 9.54209 76.9224 9.8382C76.9633 9.91111 76.9871 9.99235 76.992 10.0758C76.9969 10.1592 76.9828 10.2427 76.9508 10.3199C76.9187 10.3971 76.8696 10.466 76.807 10.5215C76.7445 10.5769 76.6702 10.6175 76.5897 10.64C76.2551 10.74 75.9121 10.809 75.565 10.8463C74.9091 10.9073 74.2506 10.9351 73.592 10.9295C72.8613 10.9278 72.1404 10.7618 71.4826 10.4437C71.2304 10.2971 71.0305 10.0751 70.9111 9.80887C70.7917 9.54266 70.7589 9.24571 70.8172 8.95985C70.8847 8.70303 70.9714 8.45168 71.0767 8.20792C71.1071 8.14323 71.1503 8.08538 71.2038 8.03786C71.2572 7.99033 71.3196 7.95413 71.3874 7.93143C71.4552 7.90873 71.5269 7.90001 71.5982 7.90578C71.6694 7.91156 71.7388 7.93172 71.802 7.96504C71.8646 7.98911 71.9209 8.02698 71.9669 8.07583C72.0128 8.12469 72.0471 8.18327 72.0672 8.24722C72.0874 8.31117 72.0928 8.37884 72.0832 8.4452C72.0736 8.51155 72.0491 8.57488 72.0116 8.63046C71.7022 9.25596 71.965 9.52213 72.5007 9.65521C72.8334 9.73839 73.1661 9.79162 73.5254 9.86149L73.5288 9.81824Z" fill="black"/>
<path d="M75.6116 4.42833C75.5883 4.39156 75.5731 4.35017 75.5672 4.30701C75.5613 4.26385 75.5648 4.21992 75.5775 4.17823C75.5901 4.13653 75.6116 4.09806 75.6405 4.06543C75.6693 4.0328 75.7049 4.00678 75.7447 3.98916C75.7827 3.96716 75.8246 3.95289 75.8682 3.94717C75.9117 3.94145 75.9559 3.9444 75.9982 3.95584C76.0406 3.96729 76.0803 3.987 76.115 4.01384C76.1497 4.04069 76.1788 4.07413 76.2005 4.11226C76.3661 4.32974 76.514 4.56003 76.643 4.80097C76.6934 4.88061 76.7105 4.97685 76.6906 5.06895C76.6706 5.16106 76.6153 5.24165 76.5366 5.29338C76.3336 5.40982 76.2438 5.38654 76.0275 5.15697C76.0508 5.66601 75.6948 5.87895 75.3621 6.1185C75.2246 6.23201 75.0751 6.33019 74.9163 6.41128C74.7513 6.48982 74.5699 6.52748 74.3873 6.52108C74.3212 6.50058 74.2604 6.46581 74.2093 6.41925C74.1581 6.37268 74.1178 6.31544 74.0912 6.25158C74.053 6.17305 74.0444 6.08338 74.067 5.99903C74.0896 5.91468 74.1419 5.84133 74.2143 5.79244C74.3906 5.68265 74.5736 5.58616 74.7532 5.45973L74.5935 5.48635C74.3407 5.51629 74.0912 5.55954 73.835 5.56953C73.266 5.59282 72.6971 5.6028 72.1282 5.61278C71.9968 5.61002 71.8662 5.59216 71.7389 5.55954C71.4561 5.48968 71.3396 5.2468 71.4062 4.86085C71.4271 4.75225 71.487 4.65505 71.5747 4.58762C71.6623 4.52018 71.7716 4.48719 71.882 4.49487C72.4675 4.49487 73.0564 4.51151 73.642 4.49487C74.1444 4.47491 74.6401 4.40837 75.1458 4.37843C75.3022 4.3832 75.4579 4.39989 75.6116 4.42833Z" fill="black"/>
<path d="M83.7132 5.28676L82.562 5.38324C82.5287 5.38324 82.4955 5.40321 82.4622 5.40321C81.9731 5.41984 81.4874 5.43981 81.0016 5.44313C80.8506 5.44523 80.7002 5.42391 80.5558 5.37992C80.4375 5.32803 80.3402 5.23766 80.2798 5.12349C80.2194 5.00932 80.1994 4.87808 80.2231 4.7511C80.2505 4.6316 80.3172 4.52474 80.4125 4.44756C80.5078 4.37038 80.6261 4.32731 80.7487 4.32523C81.5206 4.32523 82.2958 4.32523 83.0777 4.32523C83.5867 4.32523 84.0958 4.24538 84.6048 4.20878C84.7613 4.19013 84.9196 4.22416 85.0545 4.30551C85.1895 4.38685 85.2935 4.51086 85.3501 4.65794C85.4138 4.80348 85.4233 4.96699 85.3769 5.11894C85.3305 5.27088 85.2313 5.40121 85.0972 5.48638C84.6315 5.76253 84.1557 6.01872 83.6799 6.28156C83.6018 6.3328 83.5105 6.3601 83.4171 6.3601C83.3237 6.3601 83.2323 6.3328 83.1542 6.28156C83.107 6.2481 83.0674 6.20499 83.038 6.1551C83.0087 6.1052 82.9903 6.04964 82.984 5.9921C82.9777 5.93456 82.9837 5.87633 83.0016 5.82128C83.0194 5.76622 83.0488 5.71558 83.0877 5.6727C83.1809 5.59132 83.2823 5.51995 83.3904 5.45977C83.4969 5.40321 83.61 5.35995 83.7232 5.31338L83.7132 5.28676Z" fill="black"/>
<path d="M102.039 5.2834L100.844 5.38322C100.804 5.38322 100.764 5.40318 100.721 5.40318C100.272 5.41982 99.8195 5.43978 99.3703 5.4431C99.1908 5.44735 99.0116 5.42606 98.838 5.37989C98.7257 5.33372 98.6319 5.25138 98.5716 5.14591C98.5114 5.04045 98.488 4.91789 98.5053 4.79765C98.5176 4.66907 98.5772 4.54963 98.6724 4.46238C98.7676 4.37513 98.8918 4.32626 99.021 4.3252C99.8029 4.3252 100.585 4.3252 101.367 4.3252C101.869 4.3252 102.365 4.24535 102.874 4.20875C103.032 4.18834 103.192 4.2215 103.329 4.30292C103.466 4.38435 103.572 4.50934 103.629 4.65791C103.694 4.80309 103.705 4.96683 103.66 5.11943C103.615 5.27203 103.517 5.40339 103.383 5.48968C102.867 5.76916 102.351 6.05862 101.826 6.32479C101.779 6.34724 101.729 6.36024 101.677 6.36301C101.626 6.36579 101.574 6.35829 101.526 6.34095C101.477 6.32361 101.432 6.29678 101.394 6.26202C101.356 6.22726 101.325 6.18526 101.303 6.13847C101.255 6.0459 101.244 5.93847 101.271 5.83783C101.299 5.73719 101.364 5.65083 101.453 5.59615C101.623 5.48968 101.809 5.40318 102.039 5.2834Z" fill="black"/>
<path d="M170.726 9.55543C170.65 9.5572 170.574 9.54373 170.503 9.51581C170.432 9.48788 170.367 9.44606 170.312 9.39279C170.257 9.33952 170.214 9.27586 170.184 9.20553C170.154 9.1352 170.138 9.05961 170.138 8.98317C170.164 8.02649 169.888 7.08588 169.349 6.29488C169.226 6.13231 169.115 5.96108 169.016 5.78251C168.978 5.70093 168.967 5.60891 168.985 5.52057C169.004 5.43222 169.051 5.35243 169.12 5.29342C169.186 5.2181 169.27 5.16043 169.364 5.12559C169.458 5.09074 169.559 5.07982 169.658 5.0938C170.024 5.15701 170.201 5.45313 170.387 5.72262C170.831 6.41727 171.126 7.19685 171.252 8.01166C171.313 8.36204 171.328 8.71868 171.299 9.073C171.279 9.40904 171.066 9.55543 170.726 9.55543Z" fill="black"/>
<path d="M131.77 4.19882C131.896 4.25432 132.015 4.3235 132.126 4.4051C132.57 4.83893 132.947 5.33686 133.244 5.88233C133.311 5.99047 133.339 6.11826 133.325 6.24476C133.31 6.37126 133.252 6.48899 133.162 6.57866C133.072 6.66833 132.953 6.72464 132.827 6.73837C132.7 6.7521 132.573 6.72243 132.465 6.65422C132.417 6.62805 132.375 6.59173 132.342 6.54775C132.009 6.05534 131.653 5.54962 131.301 5.06719C131.238 4.98424 131.202 4.88496 131.195 4.78153C131.189 4.6781 131.213 4.57503 131.264 4.48495C131.315 4.39645 131.389 4.32324 131.478 4.27292C131.567 4.22261 131.668 4.19702 131.77 4.19882Z" fill="black"/>
<path d="M77.5214 4.65795C77.5286 4.69491 77.5283 4.73293 77.5206 4.76978C77.5129 4.80664 77.4979 4.84158 77.4766 4.87257C77.4552 4.90356 77.4278 4.92997 77.3961 4.95025C77.3644 4.97052 77.3289 4.98426 77.2918 4.99066C77.2181 5.01747 77.1368 5.01397 77.0657 4.98091C76.9946 4.94786 76.9395 4.88794 76.9125 4.81432C76.7794 4.56812 76.6264 4.32857 76.4933 4.08236C76.4234 3.94928 76.3769 3.77627 76.5299 3.69309C76.5914 3.66246 76.6583 3.64433 76.7269 3.63976C76.7954 3.63519 76.8642 3.64427 76.9292 3.66647C77.093 3.77982 77.2306 3.92697 77.3328 4.098C77.4349 4.26903 77.4993 4.45997 77.5214 4.65795Z" fill="black"/>
</g>
<defs>
<clipPath id="clip0_0_140">
<rect width="210.925" height="48" fill="white"/>
</clipPath>
</defs>
</svg>
